M48
; DRILL file {KiCad 9.0.2-2.fc42} date 2025-07-11T00:06:05+0300
; FORMAT={-:-/ absolute / metric / decimal}
; #@! TF.CreationDate,2025-07-11T00:06:05+03:00
; #@! TF.GenerationSoftware,Kicad,Pcbnew,9.0.2-2.fc42
; #@! TF.FileFunction,Plated,1,2,PTH
FMAT,2
METRIC
; #@! TA.AperFunction,Plated,PTH,ViaDrill
T1C0.350
; #@! TA.AperFunction,Plated,PTH,ComponentDrill
T2C0.350
; #@! TA.AperFunction,Plated,PTH,ComponentDrill
T3C0.600
; #@! TA.AperFunction,Plated,PTH,ComponentDrill
T4C1.000
%
G90
G05
T1
X132.912Y-41.76
X137.252Y-106.27
X140.982Y-83.97
X140.987Y-79.91
X140.987Y-80.76
X140.987Y-81.585
X140.987Y-82.36
X140.987Y-83.21
X141.812Y-49.49
X143.012Y-55.86
X144.862Y-52.21
X146.237Y-67.29
X146.237Y-71.96
X147.088Y-85.885
X147.088Y-86.71
X147.088Y-87.485
X147.088Y-88.26
X147.088Y-89.01
X147.088Y-89.81
X148.412Y-84.61
X148.438Y-76.91
X148.963Y-53.435
X150.862Y-64.736
X154.438Y-42.26
X154.933Y-106.74
X154.942Y-57.81
X155.062Y-72.66
X155.525Y-75.972
X156.362Y-75.81
X156.762Y-69.11
X156.862Y-65.56
X157.834Y-75.635
X159.512Y-57.835
X160.25Y-79.124
X161.012Y-88.335
X161.225Y-76.63
X161.975Y-76.63
X162.192Y-68.59
X162.725Y-76.63
X163.232Y-66.74
X163.403Y-71.735
X163.575Y-76.63
X164.325Y-76.63
X164.653Y-65.47
X164.812Y-97.13
X165.042Y-51.78
X165.15Y-76.63
X165.737Y-75.81
X165.966Y-76.63
X166.2Y-85.572
X166.734Y-48.91
X167.325Y-77.16
X168.637Y-63.11
X169.487Y-50.635
X169.862Y-75.91
X170.012Y-50.028
X171.412Y-95.56
X171.702Y-106.44
X171.912Y-98.06
X173.838Y-42.435
T2
X153.227Y-69.312
X153.227Y-70.587
X153.227Y-71.862
X154.502Y-69.312
X154.502Y-70.587
X154.502Y-71.862
X155.778Y-69.312
X155.778Y-70.587
X155.778Y-71.862
T4
X133.593Y-45.61
X133.593Y-48.15
X133.593Y-50.69
X133.593Y-53.23
X133.593Y-55.77
X133.593Y-58.31
X133.593Y-60.85
X133.593Y-63.39
X133.593Y-65.93
X133.593Y-68.47
X133.593Y-71.01
X133.593Y-73.55
X133.593Y-76.09
X133.593Y-78.63
X133.593Y-81.17
X133.593Y-83.71
X133.593Y-86.25
X133.593Y-88.79
X133.593Y-91.33
X133.593Y-93.87
X147.385Y-96.86
X147.385Y-99.4
X147.385Y-101.94
X147.385Y-104.48
X147.385Y-107.02
X147.385Y-109.56
X147.385Y-112.1
X147.385Y-114.64
X147.385Y-117.18
X147.385Y-119.72
X147.385Y-122.26
X147.385Y-124.8
X147.385Y-127.34
X147.385Y-129.88
X162.512Y-42.47
X162.625Y-96.86
X162.625Y-99.4
X162.625Y-101.94
X162.625Y-104.48
X162.625Y-107.02
X162.625Y-109.56
X162.625Y-112.1
X162.625Y-114.64
X162.625Y-117.18
X162.625Y-119.72
X162.625Y-122.26
X162.625Y-124.8
X162.625Y-127.34
X162.625Y-129.88
X165.052Y-42.47
X167.593Y-42.47
X170.132Y-42.47
X174.732Y-45.59
X174.732Y-48.13
X174.732Y-50.67
X174.732Y-53.21
X174.732Y-55.75
X174.732Y-58.29
X174.732Y-60.83
X174.732Y-63.37
X174.732Y-65.91
X174.732Y-68.45
X174.732Y-70.99
X174.732Y-73.53
X174.732Y-76.07
X174.732Y-78.61
X174.732Y-81.15
X174.732Y-83.69
X174.732Y-86.23
X174.732Y-88.77
X174.732Y-91.31
X174.732Y-93.85
T3
G00X150.562Y-43.545
M15
G01X150.562Y-42.745
M16
G05
G00X150.562Y-47.875
M15
G01X150.562Y-46.775
M16
G05
G00X159.202Y-43.545
M15
G01X159.202Y-42.745
M16
G05
G00X159.202Y-47.875
M15
G01X159.202Y-46.775
M16
G05
M30
