G04 #@! TF.GenerationSoftware,KiCad,Pcbnew,9.0.3-1.fc42*
G04 #@! TF.CreationDate,2025-08-26T20:02:04+03:00*
G04 #@! TF.ProjectId,eeprom-programmer-rounded,65657072-6f6d-42d7-9072-6f6772616d6d,0.1*
G04 #@! TF.SameCoordinates,Original*
G04 #@! TF.FileFunction,Legend,Bot*
G04 #@! TF.FilePolarity,Positive*
%FSLAX46Y46*%
G04 Gerber Fmt 4.6, Leading zero omitted, Abs format (unit mm)*
G04 Created by KiCad (PCBNEW 9.0.3-1.fc42) date 2025-08-26 20:02:04*
%MOMM*%
%LPD*%
G01*
G04 APERTURE LIST*
%ADD10C,0.137500*%
%ADD11C,0.150000*%
%ADD12C,0.120000*%
G04 APERTURE END LIST*
D10*
X137070135Y-69116651D02*
X137070135Y-68016651D01*
X137070135Y-68016651D02*
X136651087Y-68016651D01*
X136651087Y-68016651D02*
X136546325Y-68069032D01*
X136546325Y-68069032D02*
X136493944Y-68121413D01*
X136493944Y-68121413D02*
X136441563Y-68226175D01*
X136441563Y-68226175D02*
X136441563Y-68383318D01*
X136441563Y-68383318D02*
X136493944Y-68488080D01*
X136493944Y-68488080D02*
X136546325Y-68540461D01*
X136546325Y-68540461D02*
X136651087Y-68592842D01*
X136651087Y-68592842D02*
X137070135Y-68592842D01*
X136074897Y-68016651D02*
X135341563Y-68016651D01*
X135341563Y-68016651D02*
X135812992Y-69116651D01*
X167124030Y-46176206D02*
X167071650Y-46228587D01*
X167071650Y-46228587D02*
X167019269Y-46385730D01*
X167019269Y-46385730D02*
X167019269Y-46490492D01*
X167019269Y-46490492D02*
X167071650Y-46647635D01*
X167071650Y-46647635D02*
X167176411Y-46752397D01*
X167176411Y-46752397D02*
X167281173Y-46804778D01*
X167281173Y-46804778D02*
X167490697Y-46857159D01*
X167490697Y-46857159D02*
X167647840Y-46857159D01*
X167647840Y-46857159D02*
X167857364Y-46804778D01*
X167857364Y-46804778D02*
X167962126Y-46752397D01*
X167962126Y-46752397D02*
X168066888Y-46647635D01*
X168066888Y-46647635D02*
X168119269Y-46490492D01*
X168119269Y-46490492D02*
X168119269Y-46385730D01*
X168119269Y-46385730D02*
X168066888Y-46228587D01*
X168066888Y-46228587D02*
X168014507Y-46176206D01*
X167019269Y-45180968D02*
X167019269Y-45704778D01*
X167019269Y-45704778D02*
X168119269Y-45704778D01*
X167019269Y-44814302D02*
X168119269Y-44814302D01*
X167019269Y-44185730D02*
X167647840Y-44657159D01*
X168119269Y-44185730D02*
X167490697Y-44814302D01*
X137070135Y-64037704D02*
X137070135Y-62937704D01*
X137070135Y-62937704D02*
X136651087Y-62937704D01*
X136651087Y-62937704D02*
X136546325Y-62990085D01*
X136546325Y-62990085D02*
X136493944Y-63042466D01*
X136493944Y-63042466D02*
X136441563Y-63147228D01*
X136441563Y-63147228D02*
X136441563Y-63304371D01*
X136441563Y-63304371D02*
X136493944Y-63409133D01*
X136493944Y-63409133D02*
X136546325Y-63461514D01*
X136546325Y-63461514D02*
X136651087Y-63513895D01*
X136651087Y-63513895D02*
X137070135Y-63513895D01*
X135446325Y-62937704D02*
X135970135Y-62937704D01*
X135970135Y-62937704D02*
X136022516Y-63461514D01*
X136022516Y-63461514D02*
X135970135Y-63409133D01*
X135970135Y-63409133D02*
X135865373Y-63356752D01*
X135865373Y-63356752D02*
X135603468Y-63356752D01*
X135603468Y-63356752D02*
X135498706Y-63409133D01*
X135498706Y-63409133D02*
X135446325Y-63461514D01*
X135446325Y-63461514D02*
X135393944Y-63566276D01*
X135393944Y-63566276D02*
X135393944Y-63828181D01*
X135393944Y-63828181D02*
X135446325Y-63932943D01*
X135446325Y-63932943D02*
X135498706Y-63985324D01*
X135498706Y-63985324D02*
X135603468Y-64037704D01*
X135603468Y-64037704D02*
X135865373Y-64037704D01*
X135865373Y-64037704D02*
X135970135Y-63985324D01*
X135970135Y-63985324D02*
X136022516Y-63932943D01*
X172810135Y-79293230D02*
X172810135Y-78193230D01*
X172810135Y-78193230D02*
X172391087Y-78193230D01*
X172391087Y-78193230D02*
X172286325Y-78245611D01*
X172286325Y-78245611D02*
X172233944Y-78297992D01*
X172233944Y-78297992D02*
X172181563Y-78402754D01*
X172181563Y-78402754D02*
X172181563Y-78559897D01*
X172181563Y-78559897D02*
X172233944Y-78664659D01*
X172233944Y-78664659D02*
X172286325Y-78717040D01*
X172286325Y-78717040D02*
X172391087Y-78769421D01*
X172391087Y-78769421D02*
X172810135Y-78769421D01*
X171133944Y-79293230D02*
X171762516Y-79293230D01*
X171448230Y-79293230D02*
X171448230Y-78193230D01*
X171448230Y-78193230D02*
X171552992Y-78350373D01*
X171552992Y-78350373D02*
X171657754Y-78455135D01*
X171657754Y-78455135D02*
X171762516Y-78507516D01*
X170505373Y-78664659D02*
X170610135Y-78612278D01*
X170610135Y-78612278D02*
X170662516Y-78559897D01*
X170662516Y-78559897D02*
X170714897Y-78455135D01*
X170714897Y-78455135D02*
X170714897Y-78402754D01*
X170714897Y-78402754D02*
X170662516Y-78297992D01*
X170662516Y-78297992D02*
X170610135Y-78245611D01*
X170610135Y-78245611D02*
X170505373Y-78193230D01*
X170505373Y-78193230D02*
X170295849Y-78193230D01*
X170295849Y-78193230D02*
X170191087Y-78245611D01*
X170191087Y-78245611D02*
X170138706Y-78297992D01*
X170138706Y-78297992D02*
X170086325Y-78402754D01*
X170086325Y-78402754D02*
X170086325Y-78455135D01*
X170086325Y-78455135D02*
X170138706Y-78559897D01*
X170138706Y-78559897D02*
X170191087Y-78612278D01*
X170191087Y-78612278D02*
X170295849Y-78664659D01*
X170295849Y-78664659D02*
X170505373Y-78664659D01*
X170505373Y-78664659D02*
X170610135Y-78717040D01*
X170610135Y-78717040D02*
X170662516Y-78769421D01*
X170662516Y-78769421D02*
X170714897Y-78874183D01*
X170714897Y-78874183D02*
X170714897Y-79083707D01*
X170714897Y-79083707D02*
X170662516Y-79188469D01*
X170662516Y-79188469D02*
X170610135Y-79240850D01*
X170610135Y-79240850D02*
X170505373Y-79293230D01*
X170505373Y-79293230D02*
X170295849Y-79293230D01*
X170295849Y-79293230D02*
X170191087Y-79240850D01*
X170191087Y-79240850D02*
X170138706Y-79188469D01*
X170138706Y-79188469D02*
X170086325Y-79083707D01*
X170086325Y-79083707D02*
X170086325Y-78874183D01*
X170086325Y-78874183D02*
X170138706Y-78769421D01*
X170138706Y-78769421D02*
X170191087Y-78717040D01*
X170191087Y-78717040D02*
X170295849Y-78664659D01*
X172286325Y-47468230D02*
X172810135Y-47468230D01*
X172810135Y-47468230D02*
X172862516Y-47992040D01*
X172862516Y-47992040D02*
X172810135Y-47939659D01*
X172810135Y-47939659D02*
X172705373Y-47887278D01*
X172705373Y-47887278D02*
X172443468Y-47887278D01*
X172443468Y-47887278D02*
X172338706Y-47939659D01*
X172338706Y-47939659D02*
X172286325Y-47992040D01*
X172286325Y-47992040D02*
X172233944Y-48096802D01*
X172233944Y-48096802D02*
X172233944Y-48358707D01*
X172233944Y-48358707D02*
X172286325Y-48463469D01*
X172286325Y-48463469D02*
X172338706Y-48515850D01*
X172338706Y-48515850D02*
X172443468Y-48568230D01*
X172443468Y-48568230D02*
X172705373Y-48568230D01*
X172705373Y-48568230D02*
X172810135Y-48515850D01*
X172810135Y-48515850D02*
X172862516Y-48463469D01*
X171867278Y-47834897D02*
X171605373Y-48568230D01*
X171605373Y-48568230D02*
X171343468Y-47834897D01*
X137646326Y-47700862D02*
X136965373Y-47700862D01*
X136965373Y-47700862D02*
X137332040Y-48119910D01*
X137332040Y-48119910D02*
X137174897Y-48119910D01*
X137174897Y-48119910D02*
X137070135Y-48172291D01*
X137070135Y-48172291D02*
X137017754Y-48224672D01*
X137017754Y-48224672D02*
X136965373Y-48329434D01*
X136965373Y-48329434D02*
X136965373Y-48591339D01*
X136965373Y-48591339D02*
X137017754Y-48696101D01*
X137017754Y-48696101D02*
X137070135Y-48748482D01*
X137070135Y-48748482D02*
X137174897Y-48800862D01*
X137174897Y-48800862D02*
X137489183Y-48800862D01*
X137489183Y-48800862D02*
X137593945Y-48748482D01*
X137593945Y-48748482D02*
X137646326Y-48696101D01*
X136493945Y-48696101D02*
X136441564Y-48748482D01*
X136441564Y-48748482D02*
X136493945Y-48800862D01*
X136493945Y-48800862D02*
X136546326Y-48748482D01*
X136546326Y-48748482D02*
X136493945Y-48696101D01*
X136493945Y-48696101D02*
X136493945Y-48800862D01*
X136074897Y-47700862D02*
X135393944Y-47700862D01*
X135393944Y-47700862D02*
X135760611Y-48119910D01*
X135760611Y-48119910D02*
X135603468Y-48119910D01*
X135603468Y-48119910D02*
X135498706Y-48172291D01*
X135498706Y-48172291D02*
X135446325Y-48224672D01*
X135446325Y-48224672D02*
X135393944Y-48329434D01*
X135393944Y-48329434D02*
X135393944Y-48591339D01*
X135393944Y-48591339D02*
X135446325Y-48696101D01*
X135446325Y-48696101D02*
X135498706Y-48748482D01*
X135498706Y-48748482D02*
X135603468Y-48800862D01*
X135603468Y-48800862D02*
X135917754Y-48800862D01*
X135917754Y-48800862D02*
X136022516Y-48748482D01*
X136022516Y-48748482D02*
X136074897Y-48696101D01*
X172810135Y-71593230D02*
X172810135Y-70493230D01*
X172810135Y-70493230D02*
X172391087Y-70493230D01*
X172391087Y-70493230D02*
X172286325Y-70545611D01*
X172286325Y-70545611D02*
X172233944Y-70597992D01*
X172233944Y-70597992D02*
X172181563Y-70702754D01*
X172181563Y-70702754D02*
X172181563Y-70859897D01*
X172181563Y-70859897D02*
X172233944Y-70964659D01*
X172233944Y-70964659D02*
X172286325Y-71017040D01*
X172286325Y-71017040D02*
X172391087Y-71069421D01*
X172391087Y-71069421D02*
X172810135Y-71069421D01*
X171762516Y-70597992D02*
X171710135Y-70545611D01*
X171710135Y-70545611D02*
X171605373Y-70493230D01*
X171605373Y-70493230D02*
X171343468Y-70493230D01*
X171343468Y-70493230D02*
X171238706Y-70545611D01*
X171238706Y-70545611D02*
X171186325Y-70597992D01*
X171186325Y-70597992D02*
X171133944Y-70702754D01*
X171133944Y-70702754D02*
X171133944Y-70807516D01*
X171133944Y-70807516D02*
X171186325Y-70964659D01*
X171186325Y-70964659D02*
X171814897Y-71593230D01*
X171814897Y-71593230D02*
X171133944Y-71593230D01*
X170086325Y-71593230D02*
X170714897Y-71593230D01*
X170400611Y-71593230D02*
X170400611Y-70493230D01*
X170400611Y-70493230D02*
X170505373Y-70650373D01*
X170505373Y-70650373D02*
X170610135Y-70755135D01*
X170610135Y-70755135D02*
X170714897Y-70807516D01*
X138117754Y-76735072D02*
X138117754Y-75635072D01*
X138117754Y-75635072D02*
X137698706Y-75635072D01*
X137698706Y-75635072D02*
X137593944Y-75687453D01*
X137593944Y-75687453D02*
X137541563Y-75739834D01*
X137541563Y-75739834D02*
X137489182Y-75844596D01*
X137489182Y-75844596D02*
X137489182Y-76001739D01*
X137489182Y-76001739D02*
X137541563Y-76106501D01*
X137541563Y-76106501D02*
X137593944Y-76158882D01*
X137593944Y-76158882D02*
X137698706Y-76211263D01*
X137698706Y-76211263D02*
X138117754Y-76211263D01*
X136441563Y-76735072D02*
X137070135Y-76735072D01*
X136755849Y-76735072D02*
X136755849Y-75635072D01*
X136755849Y-75635072D02*
X136860611Y-75792215D01*
X136860611Y-75792215D02*
X136965373Y-75896977D01*
X136965373Y-75896977D02*
X137070135Y-75949358D01*
X135760611Y-75635072D02*
X135655849Y-75635072D01*
X135655849Y-75635072D02*
X135551087Y-75687453D01*
X135551087Y-75687453D02*
X135498706Y-75739834D01*
X135498706Y-75739834D02*
X135446325Y-75844596D01*
X135446325Y-75844596D02*
X135393944Y-76054120D01*
X135393944Y-76054120D02*
X135393944Y-76316025D01*
X135393944Y-76316025D02*
X135446325Y-76525549D01*
X135446325Y-76525549D02*
X135498706Y-76630311D01*
X135498706Y-76630311D02*
X135551087Y-76682692D01*
X135551087Y-76682692D02*
X135655849Y-76735072D01*
X135655849Y-76735072D02*
X135760611Y-76735072D01*
X135760611Y-76735072D02*
X135865373Y-76682692D01*
X135865373Y-76682692D02*
X135917754Y-76630311D01*
X135917754Y-76630311D02*
X135970135Y-76525549D01*
X135970135Y-76525549D02*
X136022516Y-76316025D01*
X136022516Y-76316025D02*
X136022516Y-76054120D01*
X136022516Y-76054120D02*
X135970135Y-75844596D01*
X135970135Y-75844596D02*
X135917754Y-75739834D01*
X135917754Y-75739834D02*
X135865373Y-75687453D01*
X135865373Y-75687453D02*
X135760611Y-75635072D01*
X172810135Y-66518230D02*
X172810135Y-65418230D01*
X172810135Y-65418230D02*
X172391087Y-65418230D01*
X172391087Y-65418230D02*
X172286325Y-65470611D01*
X172286325Y-65470611D02*
X172233944Y-65522992D01*
X172233944Y-65522992D02*
X172181563Y-65627754D01*
X172181563Y-65627754D02*
X172181563Y-65784897D01*
X172181563Y-65784897D02*
X172233944Y-65889659D01*
X172233944Y-65889659D02*
X172286325Y-65942040D01*
X172286325Y-65942040D02*
X172391087Y-65994421D01*
X172391087Y-65994421D02*
X172810135Y-65994421D01*
X171762516Y-65522992D02*
X171710135Y-65470611D01*
X171710135Y-65470611D02*
X171605373Y-65418230D01*
X171605373Y-65418230D02*
X171343468Y-65418230D01*
X171343468Y-65418230D02*
X171238706Y-65470611D01*
X171238706Y-65470611D02*
X171186325Y-65522992D01*
X171186325Y-65522992D02*
X171133944Y-65627754D01*
X171133944Y-65627754D02*
X171133944Y-65732516D01*
X171133944Y-65732516D02*
X171186325Y-65889659D01*
X171186325Y-65889659D02*
X171814897Y-66518230D01*
X171814897Y-66518230D02*
X171133944Y-66518230D01*
X170767278Y-65418230D02*
X170086325Y-65418230D01*
X170086325Y-65418230D02*
X170452992Y-65837278D01*
X170452992Y-65837278D02*
X170295849Y-65837278D01*
X170295849Y-65837278D02*
X170191087Y-65889659D01*
X170191087Y-65889659D02*
X170138706Y-65942040D01*
X170138706Y-65942040D02*
X170086325Y-66046802D01*
X170086325Y-66046802D02*
X170086325Y-66308707D01*
X170086325Y-66308707D02*
X170138706Y-66413469D01*
X170138706Y-66413469D02*
X170191087Y-66465850D01*
X170191087Y-66465850D02*
X170295849Y-66518230D01*
X170295849Y-66518230D02*
X170610135Y-66518230D01*
X170610135Y-66518230D02*
X170714897Y-66465850D01*
X170714897Y-66465850D02*
X170767278Y-66413469D01*
X172810135Y-63943230D02*
X172810135Y-62843230D01*
X172810135Y-62843230D02*
X172391087Y-62843230D01*
X172391087Y-62843230D02*
X172286325Y-62895611D01*
X172286325Y-62895611D02*
X172233944Y-62947992D01*
X172233944Y-62947992D02*
X172181563Y-63052754D01*
X172181563Y-63052754D02*
X172181563Y-63209897D01*
X172181563Y-63209897D02*
X172233944Y-63314659D01*
X172233944Y-63314659D02*
X172286325Y-63367040D01*
X172286325Y-63367040D02*
X172391087Y-63419421D01*
X172391087Y-63419421D02*
X172810135Y-63419421D01*
X171762516Y-62947992D02*
X171710135Y-62895611D01*
X171710135Y-62895611D02*
X171605373Y-62843230D01*
X171605373Y-62843230D02*
X171343468Y-62843230D01*
X171343468Y-62843230D02*
X171238706Y-62895611D01*
X171238706Y-62895611D02*
X171186325Y-62947992D01*
X171186325Y-62947992D02*
X171133944Y-63052754D01*
X171133944Y-63052754D02*
X171133944Y-63157516D01*
X171133944Y-63157516D02*
X171186325Y-63314659D01*
X171186325Y-63314659D02*
X171814897Y-63943230D01*
X171814897Y-63943230D02*
X171133944Y-63943230D01*
X170191087Y-63209897D02*
X170191087Y-63943230D01*
X170452992Y-62790850D02*
X170714897Y-63576564D01*
X170714897Y-63576564D02*
X170033944Y-63576564D01*
X162991888Y-46490492D02*
X163044269Y-46595254D01*
X163044269Y-46595254D02*
X163044269Y-46752397D01*
X163044269Y-46752397D02*
X162991888Y-46909540D01*
X162991888Y-46909540D02*
X162887126Y-47014302D01*
X162887126Y-47014302D02*
X162782364Y-47066683D01*
X162782364Y-47066683D02*
X162572840Y-47119064D01*
X162572840Y-47119064D02*
X162415697Y-47119064D01*
X162415697Y-47119064D02*
X162206173Y-47066683D01*
X162206173Y-47066683D02*
X162101411Y-47014302D01*
X162101411Y-47014302D02*
X161996650Y-46909540D01*
X161996650Y-46909540D02*
X161944269Y-46752397D01*
X161944269Y-46752397D02*
X161944269Y-46647635D01*
X161944269Y-46647635D02*
X161996650Y-46490492D01*
X161996650Y-46490492D02*
X162049030Y-46438111D01*
X162049030Y-46438111D02*
X162415697Y-46438111D01*
X162415697Y-46438111D02*
X162415697Y-46647635D01*
X161944269Y-45966683D02*
X163044269Y-45966683D01*
X163044269Y-45966683D02*
X161944269Y-45338111D01*
X161944269Y-45338111D02*
X163044269Y-45338111D01*
X161944269Y-44814302D02*
X163044269Y-44814302D01*
X163044269Y-44814302D02*
X163044269Y-44552397D01*
X163044269Y-44552397D02*
X162991888Y-44395254D01*
X162991888Y-44395254D02*
X162887126Y-44290492D01*
X162887126Y-44290492D02*
X162782364Y-44238111D01*
X162782364Y-44238111D02*
X162572840Y-44185730D01*
X162572840Y-44185730D02*
X162415697Y-44185730D01*
X162415697Y-44185730D02*
X162206173Y-44238111D01*
X162206173Y-44238111D02*
X162101411Y-44290492D01*
X162101411Y-44290492D02*
X161996650Y-44395254D01*
X161996650Y-44395254D02*
X161944269Y-44552397D01*
X161944269Y-44552397D02*
X161944269Y-44814302D01*
X138117754Y-81814020D02*
X138117754Y-80714020D01*
X138117754Y-80714020D02*
X137698706Y-80714020D01*
X137698706Y-80714020D02*
X137593944Y-80766401D01*
X137593944Y-80766401D02*
X137541563Y-80818782D01*
X137541563Y-80818782D02*
X137489182Y-80923544D01*
X137489182Y-80923544D02*
X137489182Y-81080687D01*
X137489182Y-81080687D02*
X137541563Y-81185449D01*
X137541563Y-81185449D02*
X137593944Y-81237830D01*
X137593944Y-81237830D02*
X137698706Y-81290211D01*
X137698706Y-81290211D02*
X138117754Y-81290211D01*
X136441563Y-81814020D02*
X137070135Y-81814020D01*
X136755849Y-81814020D02*
X136755849Y-80714020D01*
X136755849Y-80714020D02*
X136860611Y-80871163D01*
X136860611Y-80871163D02*
X136965373Y-80975925D01*
X136965373Y-80975925D02*
X137070135Y-81028306D01*
X136022516Y-80818782D02*
X135970135Y-80766401D01*
X135970135Y-80766401D02*
X135865373Y-80714020D01*
X135865373Y-80714020D02*
X135603468Y-80714020D01*
X135603468Y-80714020D02*
X135498706Y-80766401D01*
X135498706Y-80766401D02*
X135446325Y-80818782D01*
X135446325Y-80818782D02*
X135393944Y-80923544D01*
X135393944Y-80923544D02*
X135393944Y-81028306D01*
X135393944Y-81028306D02*
X135446325Y-81185449D01*
X135446325Y-81185449D02*
X136074897Y-81814020D01*
X136074897Y-81814020D02*
X135393944Y-81814020D01*
X137070135Y-56419283D02*
X137070135Y-55319283D01*
X137070135Y-55319283D02*
X136651087Y-55319283D01*
X136651087Y-55319283D02*
X136546325Y-55371664D01*
X136546325Y-55371664D02*
X136493944Y-55424045D01*
X136493944Y-55424045D02*
X136441563Y-55528807D01*
X136441563Y-55528807D02*
X136441563Y-55685950D01*
X136441563Y-55685950D02*
X136493944Y-55790712D01*
X136493944Y-55790712D02*
X136546325Y-55843093D01*
X136546325Y-55843093D02*
X136651087Y-55895474D01*
X136651087Y-55895474D02*
X137070135Y-55895474D01*
X136022516Y-55424045D02*
X135970135Y-55371664D01*
X135970135Y-55371664D02*
X135865373Y-55319283D01*
X135865373Y-55319283D02*
X135603468Y-55319283D01*
X135603468Y-55319283D02*
X135498706Y-55371664D01*
X135498706Y-55371664D02*
X135446325Y-55424045D01*
X135446325Y-55424045D02*
X135393944Y-55528807D01*
X135393944Y-55528807D02*
X135393944Y-55633569D01*
X135393944Y-55633569D02*
X135446325Y-55790712D01*
X135446325Y-55790712D02*
X136074897Y-56419283D01*
X136074897Y-56419283D02*
X135393944Y-56419283D01*
X170744269Y-46752397D02*
X170744269Y-46071444D01*
X170744269Y-46071444D02*
X170325221Y-46438111D01*
X170325221Y-46438111D02*
X170325221Y-46280968D01*
X170325221Y-46280968D02*
X170272840Y-46176206D01*
X170272840Y-46176206D02*
X170220459Y-46123825D01*
X170220459Y-46123825D02*
X170115697Y-46071444D01*
X170115697Y-46071444D02*
X169853792Y-46071444D01*
X169853792Y-46071444D02*
X169749030Y-46123825D01*
X169749030Y-46123825D02*
X169696650Y-46176206D01*
X169696650Y-46176206D02*
X169644269Y-46280968D01*
X169644269Y-46280968D02*
X169644269Y-46595254D01*
X169644269Y-46595254D02*
X169696650Y-46700016D01*
X169696650Y-46700016D02*
X169749030Y-46752397D01*
X170377602Y-45704778D02*
X169644269Y-45442873D01*
X169644269Y-45442873D02*
X170377602Y-45180968D01*
X170744269Y-44866683D02*
X170744269Y-44185730D01*
X170744269Y-44185730D02*
X170325221Y-44552397D01*
X170325221Y-44552397D02*
X170325221Y-44395254D01*
X170325221Y-44395254D02*
X170272840Y-44290492D01*
X170272840Y-44290492D02*
X170220459Y-44238111D01*
X170220459Y-44238111D02*
X170115697Y-44185730D01*
X170115697Y-44185730D02*
X169853792Y-44185730D01*
X169853792Y-44185730D02*
X169749030Y-44238111D01*
X169749030Y-44238111D02*
X169696650Y-44290492D01*
X169696650Y-44290492D02*
X169644269Y-44395254D01*
X169644269Y-44395254D02*
X169644269Y-44709540D01*
X169644269Y-44709540D02*
X169696650Y-44814302D01*
X169696650Y-44814302D02*
X169749030Y-44866683D01*
X138117754Y-86892967D02*
X138117754Y-85792967D01*
X138117754Y-85792967D02*
X137698706Y-85792967D01*
X137698706Y-85792967D02*
X137593944Y-85845348D01*
X137593944Y-85845348D02*
X137541563Y-85897729D01*
X137541563Y-85897729D02*
X137489182Y-86002491D01*
X137489182Y-86002491D02*
X137489182Y-86159634D01*
X137489182Y-86159634D02*
X137541563Y-86264396D01*
X137541563Y-86264396D02*
X137593944Y-86316777D01*
X137593944Y-86316777D02*
X137698706Y-86369158D01*
X137698706Y-86369158D02*
X138117754Y-86369158D01*
X136441563Y-86892967D02*
X137070135Y-86892967D01*
X136755849Y-86892967D02*
X136755849Y-85792967D01*
X136755849Y-85792967D02*
X136860611Y-85950110D01*
X136860611Y-85950110D02*
X136965373Y-86054872D01*
X136965373Y-86054872D02*
X137070135Y-86107253D01*
X135498706Y-86159634D02*
X135498706Y-86892967D01*
X135760611Y-85740587D02*
X136022516Y-86526301D01*
X136022516Y-86526301D02*
X135341563Y-86526301D01*
X137070135Y-53879809D02*
X137070135Y-52779809D01*
X137070135Y-52779809D02*
X136651087Y-52779809D01*
X136651087Y-52779809D02*
X136546325Y-52832190D01*
X136546325Y-52832190D02*
X136493944Y-52884571D01*
X136493944Y-52884571D02*
X136441563Y-52989333D01*
X136441563Y-52989333D02*
X136441563Y-53146476D01*
X136441563Y-53146476D02*
X136493944Y-53251238D01*
X136493944Y-53251238D02*
X136546325Y-53303619D01*
X136546325Y-53303619D02*
X136651087Y-53356000D01*
X136651087Y-53356000D02*
X137070135Y-53356000D01*
X135393944Y-53879809D02*
X136022516Y-53879809D01*
X135708230Y-53879809D02*
X135708230Y-52779809D01*
X135708230Y-52779809D02*
X135812992Y-52936952D01*
X135812992Y-52936952D02*
X135917754Y-53041714D01*
X135917754Y-53041714D02*
X136022516Y-53094095D01*
X137698706Y-90924295D02*
X137803468Y-90871914D01*
X137803468Y-90871914D02*
X137960611Y-90871914D01*
X137960611Y-90871914D02*
X138117754Y-90924295D01*
X138117754Y-90924295D02*
X138222516Y-91029057D01*
X138222516Y-91029057D02*
X138274897Y-91133819D01*
X138274897Y-91133819D02*
X138327278Y-91343343D01*
X138327278Y-91343343D02*
X138327278Y-91500486D01*
X138327278Y-91500486D02*
X138274897Y-91710010D01*
X138274897Y-91710010D02*
X138222516Y-91814772D01*
X138222516Y-91814772D02*
X138117754Y-91919534D01*
X138117754Y-91919534D02*
X137960611Y-91971914D01*
X137960611Y-91971914D02*
X137855849Y-91971914D01*
X137855849Y-91971914D02*
X137698706Y-91919534D01*
X137698706Y-91919534D02*
X137646325Y-91867153D01*
X137646325Y-91867153D02*
X137646325Y-91500486D01*
X137646325Y-91500486D02*
X137855849Y-91500486D01*
X137174897Y-91971914D02*
X137174897Y-90871914D01*
X137174897Y-90871914D02*
X136546325Y-91971914D01*
X136546325Y-91971914D02*
X136546325Y-90871914D01*
X136022516Y-91971914D02*
X136022516Y-90871914D01*
X136022516Y-90871914D02*
X135760611Y-90871914D01*
X135760611Y-90871914D02*
X135603468Y-90924295D01*
X135603468Y-90924295D02*
X135498706Y-91029057D01*
X135498706Y-91029057D02*
X135446325Y-91133819D01*
X135446325Y-91133819D02*
X135393944Y-91343343D01*
X135393944Y-91343343D02*
X135393944Y-91500486D01*
X135393944Y-91500486D02*
X135446325Y-91710010D01*
X135446325Y-91710010D02*
X135498706Y-91814772D01*
X135498706Y-91814772D02*
X135603468Y-91919534D01*
X135603468Y-91919534D02*
X135760611Y-91971914D01*
X135760611Y-91971914D02*
X136022516Y-91971914D01*
X164571650Y-47171445D02*
X164519269Y-47014302D01*
X164519269Y-47014302D02*
X164519269Y-46752397D01*
X164519269Y-46752397D02*
X164571650Y-46647635D01*
X164571650Y-46647635D02*
X164624030Y-46595254D01*
X164624030Y-46595254D02*
X164728792Y-46542873D01*
X164728792Y-46542873D02*
X164833554Y-46542873D01*
X164833554Y-46542873D02*
X164938316Y-46595254D01*
X164938316Y-46595254D02*
X164990697Y-46647635D01*
X164990697Y-46647635D02*
X165043078Y-46752397D01*
X165043078Y-46752397D02*
X165095459Y-46961921D01*
X165095459Y-46961921D02*
X165147840Y-47066683D01*
X165147840Y-47066683D02*
X165200221Y-47119064D01*
X165200221Y-47119064D02*
X165304983Y-47171445D01*
X165304983Y-47171445D02*
X165409745Y-47171445D01*
X165409745Y-47171445D02*
X165514507Y-47119064D01*
X165514507Y-47119064D02*
X165566888Y-47066683D01*
X165566888Y-47066683D02*
X165619269Y-46961921D01*
X165619269Y-46961921D02*
X165619269Y-46700016D01*
X165619269Y-46700016D02*
X165566888Y-46542873D01*
X165619269Y-46176207D02*
X164519269Y-45914302D01*
X164519269Y-45914302D02*
X165304983Y-45704778D01*
X165304983Y-45704778D02*
X164519269Y-45495254D01*
X164519269Y-45495254D02*
X165619269Y-45233350D01*
X164519269Y-44814302D02*
X165619269Y-44814302D01*
X165619269Y-44814302D02*
X165619269Y-44552397D01*
X165619269Y-44552397D02*
X165566888Y-44395254D01*
X165566888Y-44395254D02*
X165462126Y-44290492D01*
X165462126Y-44290492D02*
X165357364Y-44238111D01*
X165357364Y-44238111D02*
X165147840Y-44185730D01*
X165147840Y-44185730D02*
X164990697Y-44185730D01*
X164990697Y-44185730D02*
X164781173Y-44238111D01*
X164781173Y-44238111D02*
X164676411Y-44290492D01*
X164676411Y-44290492D02*
X164571650Y-44395254D01*
X164571650Y-44395254D02*
X164519269Y-44552397D01*
X164519269Y-44552397D02*
X164519269Y-44814302D01*
X172128706Y-86913230D02*
X172495373Y-86389421D01*
X172757278Y-86913230D02*
X172757278Y-85813230D01*
X172757278Y-85813230D02*
X172338230Y-85813230D01*
X172338230Y-85813230D02*
X172233468Y-85865611D01*
X172233468Y-85865611D02*
X172181087Y-85917992D01*
X172181087Y-85917992D02*
X172128706Y-86022754D01*
X172128706Y-86022754D02*
X172128706Y-86179897D01*
X172128706Y-86179897D02*
X172181087Y-86284659D01*
X172181087Y-86284659D02*
X172233468Y-86337040D01*
X172233468Y-86337040D02*
X172338230Y-86389421D01*
X172338230Y-86389421D02*
X172757278Y-86389421D01*
X171709659Y-86860850D02*
X171552516Y-86913230D01*
X171552516Y-86913230D02*
X171290611Y-86913230D01*
X171290611Y-86913230D02*
X171185849Y-86860850D01*
X171185849Y-86860850D02*
X171133468Y-86808469D01*
X171133468Y-86808469D02*
X171081087Y-86703707D01*
X171081087Y-86703707D02*
X171081087Y-86598945D01*
X171081087Y-86598945D02*
X171133468Y-86494183D01*
X171133468Y-86494183D02*
X171185849Y-86441802D01*
X171185849Y-86441802D02*
X171290611Y-86389421D01*
X171290611Y-86389421D02*
X171500135Y-86337040D01*
X171500135Y-86337040D02*
X171604897Y-86284659D01*
X171604897Y-86284659D02*
X171657278Y-86232278D01*
X171657278Y-86232278D02*
X171709659Y-86127516D01*
X171709659Y-86127516D02*
X171709659Y-86022754D01*
X171709659Y-86022754D02*
X171657278Y-85917992D01*
X171657278Y-85917992D02*
X171604897Y-85865611D01*
X171604897Y-85865611D02*
X171500135Y-85813230D01*
X171500135Y-85813230D02*
X171238230Y-85813230D01*
X171238230Y-85813230D02*
X171081087Y-85865611D01*
X170766802Y-85813230D02*
X170138230Y-85813230D01*
X170452516Y-86913230D02*
X170452516Y-85813230D01*
X138117754Y-84353493D02*
X138117754Y-83253493D01*
X138117754Y-83253493D02*
X137698706Y-83253493D01*
X137698706Y-83253493D02*
X137593944Y-83305874D01*
X137593944Y-83305874D02*
X137541563Y-83358255D01*
X137541563Y-83358255D02*
X137489182Y-83463017D01*
X137489182Y-83463017D02*
X137489182Y-83620160D01*
X137489182Y-83620160D02*
X137541563Y-83724922D01*
X137541563Y-83724922D02*
X137593944Y-83777303D01*
X137593944Y-83777303D02*
X137698706Y-83829684D01*
X137698706Y-83829684D02*
X138117754Y-83829684D01*
X136441563Y-84353493D02*
X137070135Y-84353493D01*
X136755849Y-84353493D02*
X136755849Y-83253493D01*
X136755849Y-83253493D02*
X136860611Y-83410636D01*
X136860611Y-83410636D02*
X136965373Y-83515398D01*
X136965373Y-83515398D02*
X137070135Y-83567779D01*
X136074897Y-83253493D02*
X135393944Y-83253493D01*
X135393944Y-83253493D02*
X135760611Y-83672541D01*
X135760611Y-83672541D02*
X135603468Y-83672541D01*
X135603468Y-83672541D02*
X135498706Y-83724922D01*
X135498706Y-83724922D02*
X135446325Y-83777303D01*
X135446325Y-83777303D02*
X135393944Y-83882065D01*
X135393944Y-83882065D02*
X135393944Y-84143970D01*
X135393944Y-84143970D02*
X135446325Y-84248732D01*
X135446325Y-84248732D02*
X135498706Y-84301113D01*
X135498706Y-84301113D02*
X135603468Y-84353493D01*
X135603468Y-84353493D02*
X135917754Y-84353493D01*
X135917754Y-84353493D02*
X136022516Y-84301113D01*
X136022516Y-84301113D02*
X136074897Y-84248732D01*
X137070135Y-58958756D02*
X137070135Y-57858756D01*
X137070135Y-57858756D02*
X136651087Y-57858756D01*
X136651087Y-57858756D02*
X136546325Y-57911137D01*
X136546325Y-57911137D02*
X136493944Y-57963518D01*
X136493944Y-57963518D02*
X136441563Y-58068280D01*
X136441563Y-58068280D02*
X136441563Y-58225423D01*
X136441563Y-58225423D02*
X136493944Y-58330185D01*
X136493944Y-58330185D02*
X136546325Y-58382566D01*
X136546325Y-58382566D02*
X136651087Y-58434947D01*
X136651087Y-58434947D02*
X137070135Y-58434947D01*
X136074897Y-57858756D02*
X135393944Y-57858756D01*
X135393944Y-57858756D02*
X135760611Y-58277804D01*
X135760611Y-58277804D02*
X135603468Y-58277804D01*
X135603468Y-58277804D02*
X135498706Y-58330185D01*
X135498706Y-58330185D02*
X135446325Y-58382566D01*
X135446325Y-58382566D02*
X135393944Y-58487328D01*
X135393944Y-58487328D02*
X135393944Y-58749233D01*
X135393944Y-58749233D02*
X135446325Y-58853995D01*
X135446325Y-58853995D02*
X135498706Y-58906376D01*
X135498706Y-58906376D02*
X135603468Y-58958756D01*
X135603468Y-58958756D02*
X135917754Y-58958756D01*
X135917754Y-58958756D02*
X136022516Y-58906376D01*
X136022516Y-58906376D02*
X136074897Y-58853995D01*
X137070135Y-74195599D02*
X137070135Y-73095599D01*
X137070135Y-73095599D02*
X136651087Y-73095599D01*
X136651087Y-73095599D02*
X136546325Y-73147980D01*
X136546325Y-73147980D02*
X136493944Y-73200361D01*
X136493944Y-73200361D02*
X136441563Y-73305123D01*
X136441563Y-73305123D02*
X136441563Y-73462266D01*
X136441563Y-73462266D02*
X136493944Y-73567028D01*
X136493944Y-73567028D02*
X136546325Y-73619409D01*
X136546325Y-73619409D02*
X136651087Y-73671790D01*
X136651087Y-73671790D02*
X137070135Y-73671790D01*
X135917754Y-74195599D02*
X135708230Y-74195599D01*
X135708230Y-74195599D02*
X135603468Y-74143219D01*
X135603468Y-74143219D02*
X135551087Y-74090838D01*
X135551087Y-74090838D02*
X135446325Y-73933695D01*
X135446325Y-73933695D02*
X135393944Y-73724171D01*
X135393944Y-73724171D02*
X135393944Y-73305123D01*
X135393944Y-73305123D02*
X135446325Y-73200361D01*
X135446325Y-73200361D02*
X135498706Y-73147980D01*
X135498706Y-73147980D02*
X135603468Y-73095599D01*
X135603468Y-73095599D02*
X135812992Y-73095599D01*
X135812992Y-73095599D02*
X135917754Y-73147980D01*
X135917754Y-73147980D02*
X135970135Y-73200361D01*
X135970135Y-73200361D02*
X136022516Y-73305123D01*
X136022516Y-73305123D02*
X136022516Y-73567028D01*
X136022516Y-73567028D02*
X135970135Y-73671790D01*
X135970135Y-73671790D02*
X135917754Y-73724171D01*
X135917754Y-73724171D02*
X135812992Y-73776552D01*
X135812992Y-73776552D02*
X135603468Y-73776552D01*
X135603468Y-73776552D02*
X135498706Y-73724171D01*
X135498706Y-73724171D02*
X135446325Y-73671790D01*
X135446325Y-73671790D02*
X135393944Y-73567028D01*
X138117754Y-79274546D02*
X138117754Y-78174546D01*
X138117754Y-78174546D02*
X137698706Y-78174546D01*
X137698706Y-78174546D02*
X137593944Y-78226927D01*
X137593944Y-78226927D02*
X137541563Y-78279308D01*
X137541563Y-78279308D02*
X137489182Y-78384070D01*
X137489182Y-78384070D02*
X137489182Y-78541213D01*
X137489182Y-78541213D02*
X137541563Y-78645975D01*
X137541563Y-78645975D02*
X137593944Y-78698356D01*
X137593944Y-78698356D02*
X137698706Y-78750737D01*
X137698706Y-78750737D02*
X138117754Y-78750737D01*
X136441563Y-79274546D02*
X137070135Y-79274546D01*
X136755849Y-79274546D02*
X136755849Y-78174546D01*
X136755849Y-78174546D02*
X136860611Y-78331689D01*
X136860611Y-78331689D02*
X136965373Y-78436451D01*
X136965373Y-78436451D02*
X137070135Y-78488832D01*
X135393944Y-79274546D02*
X136022516Y-79274546D01*
X135708230Y-79274546D02*
X135708230Y-78174546D01*
X135708230Y-78174546D02*
X135812992Y-78331689D01*
X135812992Y-78331689D02*
X135917754Y-78436451D01*
X135917754Y-78436451D02*
X136022516Y-78488832D01*
X172810135Y-76643230D02*
X172810135Y-75543230D01*
X172810135Y-75543230D02*
X172391087Y-75543230D01*
X172391087Y-75543230D02*
X172286325Y-75595611D01*
X172286325Y-75595611D02*
X172233944Y-75647992D01*
X172233944Y-75647992D02*
X172181563Y-75752754D01*
X172181563Y-75752754D02*
X172181563Y-75909897D01*
X172181563Y-75909897D02*
X172233944Y-76014659D01*
X172233944Y-76014659D02*
X172286325Y-76067040D01*
X172286325Y-76067040D02*
X172391087Y-76119421D01*
X172391087Y-76119421D02*
X172810135Y-76119421D01*
X171133944Y-76643230D02*
X171762516Y-76643230D01*
X171448230Y-76643230D02*
X171448230Y-75543230D01*
X171448230Y-75543230D02*
X171552992Y-75700373D01*
X171552992Y-75700373D02*
X171657754Y-75805135D01*
X171657754Y-75805135D02*
X171762516Y-75857516D01*
X170610135Y-76643230D02*
X170400611Y-76643230D01*
X170400611Y-76643230D02*
X170295849Y-76590850D01*
X170295849Y-76590850D02*
X170243468Y-76538469D01*
X170243468Y-76538469D02*
X170138706Y-76381326D01*
X170138706Y-76381326D02*
X170086325Y-76171802D01*
X170086325Y-76171802D02*
X170086325Y-75752754D01*
X170086325Y-75752754D02*
X170138706Y-75647992D01*
X170138706Y-75647992D02*
X170191087Y-75595611D01*
X170191087Y-75595611D02*
X170295849Y-75543230D01*
X170295849Y-75543230D02*
X170505373Y-75543230D01*
X170505373Y-75543230D02*
X170610135Y-75595611D01*
X170610135Y-75595611D02*
X170662516Y-75647992D01*
X170662516Y-75647992D02*
X170714897Y-75752754D01*
X170714897Y-75752754D02*
X170714897Y-76014659D01*
X170714897Y-76014659D02*
X170662516Y-76119421D01*
X170662516Y-76119421D02*
X170610135Y-76171802D01*
X170610135Y-76171802D02*
X170505373Y-76224183D01*
X170505373Y-76224183D02*
X170295849Y-76224183D01*
X170295849Y-76224183D02*
X170191087Y-76171802D01*
X170191087Y-76171802D02*
X170138706Y-76119421D01*
X170138706Y-76119421D02*
X170086325Y-76014659D01*
D11*
X160890875Y-136314104D02*
X160414685Y-136314104D01*
X160986113Y-136599819D02*
X160652780Y-135599819D01*
X160652780Y-135599819D02*
X160319447Y-136599819D01*
X159414685Y-136599819D02*
X159748018Y-136123628D01*
X159986113Y-136599819D02*
X159986113Y-135599819D01*
X159986113Y-135599819D02*
X159605161Y-135599819D01*
X159605161Y-135599819D02*
X159509923Y-135647438D01*
X159509923Y-135647438D02*
X159462304Y-135695057D01*
X159462304Y-135695057D02*
X159414685Y-135790295D01*
X159414685Y-135790295D02*
X159414685Y-135933152D01*
X159414685Y-135933152D02*
X159462304Y-136028390D01*
X159462304Y-136028390D02*
X159509923Y-136076009D01*
X159509923Y-136076009D02*
X159605161Y-136123628D01*
X159605161Y-136123628D02*
X159986113Y-136123628D01*
X158986113Y-136076009D02*
X158652780Y-136076009D01*
X158509923Y-136599819D02*
X158986113Y-136599819D01*
X158986113Y-136599819D02*
X158986113Y-135599819D01*
X158986113Y-135599819D02*
X158509923Y-135599819D01*
X157128970Y-136123628D02*
X157128970Y-136599819D01*
X157462303Y-135599819D02*
X157128970Y-136123628D01*
X157128970Y-136123628D02*
X156795637Y-135599819D01*
X156271827Y-135599819D02*
X156081351Y-135599819D01*
X156081351Y-135599819D02*
X155986113Y-135647438D01*
X155986113Y-135647438D02*
X155890875Y-135742676D01*
X155890875Y-135742676D02*
X155843256Y-135933152D01*
X155843256Y-135933152D02*
X155843256Y-136266485D01*
X155843256Y-136266485D02*
X155890875Y-136456961D01*
X155890875Y-136456961D02*
X155986113Y-136552200D01*
X155986113Y-136552200D02*
X156081351Y-136599819D01*
X156081351Y-136599819D02*
X156271827Y-136599819D01*
X156271827Y-136599819D02*
X156367065Y-136552200D01*
X156367065Y-136552200D02*
X156462303Y-136456961D01*
X156462303Y-136456961D02*
X156509922Y-136266485D01*
X156509922Y-136266485D02*
X156509922Y-135933152D01*
X156509922Y-135933152D02*
X156462303Y-135742676D01*
X156462303Y-135742676D02*
X156367065Y-135647438D01*
X156367065Y-135647438D02*
X156271827Y-135599819D01*
X155414684Y-135599819D02*
X155414684Y-136409342D01*
X155414684Y-136409342D02*
X155367065Y-136504580D01*
X155367065Y-136504580D02*
X155319446Y-136552200D01*
X155319446Y-136552200D02*
X155224208Y-136599819D01*
X155224208Y-136599819D02*
X155033732Y-136599819D01*
X155033732Y-136599819D02*
X154938494Y-136552200D01*
X154938494Y-136552200D02*
X154890875Y-136504580D01*
X154890875Y-136504580D02*
X154843256Y-136409342D01*
X154843256Y-136409342D02*
X154843256Y-135599819D01*
X153414684Y-135599819D02*
X153224208Y-135599819D01*
X153224208Y-135599819D02*
X153128970Y-135647438D01*
X153128970Y-135647438D02*
X153033732Y-135742676D01*
X153033732Y-135742676D02*
X152986113Y-135933152D01*
X152986113Y-135933152D02*
X152986113Y-136266485D01*
X152986113Y-136266485D02*
X153033732Y-136456961D01*
X153033732Y-136456961D02*
X153128970Y-136552200D01*
X153128970Y-136552200D02*
X153224208Y-136599819D01*
X153224208Y-136599819D02*
X153414684Y-136599819D01*
X153414684Y-136599819D02*
X153509922Y-136552200D01*
X153509922Y-136552200D02*
X153605160Y-136456961D01*
X153605160Y-136456961D02*
X153652779Y-136266485D01*
X153652779Y-136266485D02*
X153652779Y-135933152D01*
X153652779Y-135933152D02*
X153605160Y-135742676D01*
X153605160Y-135742676D02*
X153509922Y-135647438D01*
X153509922Y-135647438D02*
X153414684Y-135599819D01*
X152557541Y-136599819D02*
X152557541Y-135599819D01*
X151986113Y-136599819D02*
X152414684Y-136028390D01*
X151986113Y-135599819D02*
X152557541Y-136171247D01*
D10*
X137698706Y-93463769D02*
X137803468Y-93411388D01*
X137803468Y-93411388D02*
X137960611Y-93411388D01*
X137960611Y-93411388D02*
X138117754Y-93463769D01*
X138117754Y-93463769D02*
X138222516Y-93568531D01*
X138222516Y-93568531D02*
X138274897Y-93673293D01*
X138274897Y-93673293D02*
X138327278Y-93882817D01*
X138327278Y-93882817D02*
X138327278Y-94039960D01*
X138327278Y-94039960D02*
X138274897Y-94249484D01*
X138274897Y-94249484D02*
X138222516Y-94354246D01*
X138222516Y-94354246D02*
X138117754Y-94459008D01*
X138117754Y-94459008D02*
X137960611Y-94511388D01*
X137960611Y-94511388D02*
X137855849Y-94511388D01*
X137855849Y-94511388D02*
X137698706Y-94459008D01*
X137698706Y-94459008D02*
X137646325Y-94406627D01*
X137646325Y-94406627D02*
X137646325Y-94039960D01*
X137646325Y-94039960D02*
X137855849Y-94039960D01*
X137174897Y-94511388D02*
X137174897Y-93411388D01*
X137174897Y-93411388D02*
X136546325Y-94511388D01*
X136546325Y-94511388D02*
X136546325Y-93411388D01*
X136022516Y-94511388D02*
X136022516Y-93411388D01*
X136022516Y-93411388D02*
X135760611Y-93411388D01*
X135760611Y-93411388D02*
X135603468Y-93463769D01*
X135603468Y-93463769D02*
X135498706Y-93568531D01*
X135498706Y-93568531D02*
X135446325Y-93673293D01*
X135446325Y-93673293D02*
X135393944Y-93882817D01*
X135393944Y-93882817D02*
X135393944Y-94039960D01*
X135393944Y-94039960D02*
X135446325Y-94249484D01*
X135446325Y-94249484D02*
X135498706Y-94354246D01*
X135498706Y-94354246D02*
X135603468Y-94459008D01*
X135603468Y-94459008D02*
X135760611Y-94511388D01*
X135760611Y-94511388D02*
X136022516Y-94511388D01*
X172810135Y-58943230D02*
X172810135Y-57843230D01*
X172810135Y-57843230D02*
X172391087Y-57843230D01*
X172391087Y-57843230D02*
X172286325Y-57895611D01*
X172286325Y-57895611D02*
X172233944Y-57947992D01*
X172233944Y-57947992D02*
X172181563Y-58052754D01*
X172181563Y-58052754D02*
X172181563Y-58209897D01*
X172181563Y-58209897D02*
X172233944Y-58314659D01*
X172233944Y-58314659D02*
X172286325Y-58367040D01*
X172286325Y-58367040D02*
X172391087Y-58419421D01*
X172391087Y-58419421D02*
X172810135Y-58419421D01*
X171762516Y-57947992D02*
X171710135Y-57895611D01*
X171710135Y-57895611D02*
X171605373Y-57843230D01*
X171605373Y-57843230D02*
X171343468Y-57843230D01*
X171343468Y-57843230D02*
X171238706Y-57895611D01*
X171238706Y-57895611D02*
X171186325Y-57947992D01*
X171186325Y-57947992D02*
X171133944Y-58052754D01*
X171133944Y-58052754D02*
X171133944Y-58157516D01*
X171133944Y-58157516D02*
X171186325Y-58314659D01*
X171186325Y-58314659D02*
X171814897Y-58943230D01*
X171814897Y-58943230D02*
X171133944Y-58943230D01*
X170191087Y-57843230D02*
X170400611Y-57843230D01*
X170400611Y-57843230D02*
X170505373Y-57895611D01*
X170505373Y-57895611D02*
X170557754Y-57947992D01*
X170557754Y-57947992D02*
X170662516Y-58105135D01*
X170662516Y-58105135D02*
X170714897Y-58314659D01*
X170714897Y-58314659D02*
X170714897Y-58733707D01*
X170714897Y-58733707D02*
X170662516Y-58838469D01*
X170662516Y-58838469D02*
X170610135Y-58890850D01*
X170610135Y-58890850D02*
X170505373Y-58943230D01*
X170505373Y-58943230D02*
X170295849Y-58943230D01*
X170295849Y-58943230D02*
X170191087Y-58890850D01*
X170191087Y-58890850D02*
X170138706Y-58838469D01*
X170138706Y-58838469D02*
X170086325Y-58733707D01*
X170086325Y-58733707D02*
X170086325Y-58471802D01*
X170086325Y-58471802D02*
X170138706Y-58367040D01*
X170138706Y-58367040D02*
X170191087Y-58314659D01*
X170191087Y-58314659D02*
X170295849Y-58262278D01*
X170295849Y-58262278D02*
X170505373Y-58262278D01*
X170505373Y-58262278D02*
X170610135Y-58314659D01*
X170610135Y-58314659D02*
X170662516Y-58367040D01*
X170662516Y-58367040D02*
X170714897Y-58471802D01*
X138117754Y-89432441D02*
X138117754Y-88332441D01*
X138117754Y-88332441D02*
X137698706Y-88332441D01*
X137698706Y-88332441D02*
X137593944Y-88384822D01*
X137593944Y-88384822D02*
X137541563Y-88437203D01*
X137541563Y-88437203D02*
X137489182Y-88541965D01*
X137489182Y-88541965D02*
X137489182Y-88699108D01*
X137489182Y-88699108D02*
X137541563Y-88803870D01*
X137541563Y-88803870D02*
X137593944Y-88856251D01*
X137593944Y-88856251D02*
X137698706Y-88908632D01*
X137698706Y-88908632D02*
X138117754Y-88908632D01*
X136441563Y-89432441D02*
X137070135Y-89432441D01*
X136755849Y-89432441D02*
X136755849Y-88332441D01*
X136755849Y-88332441D02*
X136860611Y-88489584D01*
X136860611Y-88489584D02*
X136965373Y-88594346D01*
X136965373Y-88594346D02*
X137070135Y-88646727D01*
X135446325Y-88332441D02*
X135970135Y-88332441D01*
X135970135Y-88332441D02*
X136022516Y-88856251D01*
X136022516Y-88856251D02*
X135970135Y-88803870D01*
X135970135Y-88803870D02*
X135865373Y-88751489D01*
X135865373Y-88751489D02*
X135603468Y-88751489D01*
X135603468Y-88751489D02*
X135498706Y-88803870D01*
X135498706Y-88803870D02*
X135446325Y-88856251D01*
X135446325Y-88856251D02*
X135393944Y-88961013D01*
X135393944Y-88961013D02*
X135393944Y-89222918D01*
X135393944Y-89222918D02*
X135446325Y-89327680D01*
X135446325Y-89327680D02*
X135498706Y-89380061D01*
X135498706Y-89380061D02*
X135603468Y-89432441D01*
X135603468Y-89432441D02*
X135865373Y-89432441D01*
X135865373Y-89432441D02*
X135970135Y-89380061D01*
X135970135Y-89380061D02*
X136022516Y-89327680D01*
X137070135Y-66577177D02*
X137070135Y-65477177D01*
X137070135Y-65477177D02*
X136651087Y-65477177D01*
X136651087Y-65477177D02*
X136546325Y-65529558D01*
X136546325Y-65529558D02*
X136493944Y-65581939D01*
X136493944Y-65581939D02*
X136441563Y-65686701D01*
X136441563Y-65686701D02*
X136441563Y-65843844D01*
X136441563Y-65843844D02*
X136493944Y-65948606D01*
X136493944Y-65948606D02*
X136546325Y-66000987D01*
X136546325Y-66000987D02*
X136651087Y-66053368D01*
X136651087Y-66053368D02*
X137070135Y-66053368D01*
X135498706Y-65477177D02*
X135708230Y-65477177D01*
X135708230Y-65477177D02*
X135812992Y-65529558D01*
X135812992Y-65529558D02*
X135865373Y-65581939D01*
X135865373Y-65581939D02*
X135970135Y-65739082D01*
X135970135Y-65739082D02*
X136022516Y-65948606D01*
X136022516Y-65948606D02*
X136022516Y-66367654D01*
X136022516Y-66367654D02*
X135970135Y-66472416D01*
X135970135Y-66472416D02*
X135917754Y-66524797D01*
X135917754Y-66524797D02*
X135812992Y-66577177D01*
X135812992Y-66577177D02*
X135603468Y-66577177D01*
X135603468Y-66577177D02*
X135498706Y-66524797D01*
X135498706Y-66524797D02*
X135446325Y-66472416D01*
X135446325Y-66472416D02*
X135393944Y-66367654D01*
X135393944Y-66367654D02*
X135393944Y-66105749D01*
X135393944Y-66105749D02*
X135446325Y-66000987D01*
X135446325Y-66000987D02*
X135498706Y-65948606D01*
X135498706Y-65948606D02*
X135603468Y-65896225D01*
X135603468Y-65896225D02*
X135812992Y-65896225D01*
X135812992Y-65896225D02*
X135917754Y-65948606D01*
X135917754Y-65948606D02*
X135970135Y-66000987D01*
X135970135Y-66000987D02*
X136022516Y-66105749D01*
X172286325Y-44918230D02*
X172810135Y-44918230D01*
X172810135Y-44918230D02*
X172862516Y-45442040D01*
X172862516Y-45442040D02*
X172810135Y-45389659D01*
X172810135Y-45389659D02*
X172705373Y-45337278D01*
X172705373Y-45337278D02*
X172443468Y-45337278D01*
X172443468Y-45337278D02*
X172338706Y-45389659D01*
X172338706Y-45389659D02*
X172286325Y-45442040D01*
X172286325Y-45442040D02*
X172233944Y-45546802D01*
X172233944Y-45546802D02*
X172233944Y-45808707D01*
X172233944Y-45808707D02*
X172286325Y-45913469D01*
X172286325Y-45913469D02*
X172338706Y-45965850D01*
X172338706Y-45965850D02*
X172443468Y-46018230D01*
X172443468Y-46018230D02*
X172705373Y-46018230D01*
X172705373Y-46018230D02*
X172810135Y-45965850D01*
X172810135Y-45965850D02*
X172862516Y-45913469D01*
X171867278Y-45284897D02*
X171605373Y-46018230D01*
X171605373Y-46018230D02*
X171343468Y-45284897D01*
X172233944Y-93420611D02*
X172338706Y-93368230D01*
X172338706Y-93368230D02*
X172495849Y-93368230D01*
X172495849Y-93368230D02*
X172652992Y-93420611D01*
X172652992Y-93420611D02*
X172757754Y-93525373D01*
X172757754Y-93525373D02*
X172810135Y-93630135D01*
X172810135Y-93630135D02*
X172862516Y-93839659D01*
X172862516Y-93839659D02*
X172862516Y-93996802D01*
X172862516Y-93996802D02*
X172810135Y-94206326D01*
X172810135Y-94206326D02*
X172757754Y-94311088D01*
X172757754Y-94311088D02*
X172652992Y-94415850D01*
X172652992Y-94415850D02*
X172495849Y-94468230D01*
X172495849Y-94468230D02*
X172391087Y-94468230D01*
X172391087Y-94468230D02*
X172233944Y-94415850D01*
X172233944Y-94415850D02*
X172181563Y-94363469D01*
X172181563Y-94363469D02*
X172181563Y-93996802D01*
X172181563Y-93996802D02*
X172391087Y-93996802D01*
X171710135Y-94468230D02*
X171710135Y-93368230D01*
X171710135Y-93368230D02*
X171081563Y-94468230D01*
X171081563Y-94468230D02*
X171081563Y-93368230D01*
X170557754Y-94468230D02*
X170557754Y-93368230D01*
X170557754Y-93368230D02*
X170295849Y-93368230D01*
X170295849Y-93368230D02*
X170138706Y-93420611D01*
X170138706Y-93420611D02*
X170033944Y-93525373D01*
X170033944Y-93525373D02*
X169981563Y-93630135D01*
X169981563Y-93630135D02*
X169929182Y-93839659D01*
X169929182Y-93839659D02*
X169929182Y-93996802D01*
X169929182Y-93996802D02*
X169981563Y-94206326D01*
X169981563Y-94206326D02*
X170033944Y-94311088D01*
X170033944Y-94311088D02*
X170138706Y-94415850D01*
X170138706Y-94415850D02*
X170295849Y-94468230D01*
X170295849Y-94468230D02*
X170557754Y-94468230D01*
X172810135Y-81768230D02*
X172810135Y-80668230D01*
X172810135Y-80668230D02*
X172391087Y-80668230D01*
X172391087Y-80668230D02*
X172286325Y-80720611D01*
X172286325Y-80720611D02*
X172233944Y-80772992D01*
X172233944Y-80772992D02*
X172181563Y-80877754D01*
X172181563Y-80877754D02*
X172181563Y-81034897D01*
X172181563Y-81034897D02*
X172233944Y-81139659D01*
X172233944Y-81139659D02*
X172286325Y-81192040D01*
X172286325Y-81192040D02*
X172391087Y-81244421D01*
X172391087Y-81244421D02*
X172810135Y-81244421D01*
X171133944Y-81768230D02*
X171762516Y-81768230D01*
X171448230Y-81768230D02*
X171448230Y-80668230D01*
X171448230Y-80668230D02*
X171552992Y-80825373D01*
X171552992Y-80825373D02*
X171657754Y-80930135D01*
X171657754Y-80930135D02*
X171762516Y-80982516D01*
X170767278Y-80668230D02*
X170033944Y-80668230D01*
X170033944Y-80668230D02*
X170505373Y-81768230D01*
X137070135Y-51340335D02*
X137070135Y-50240335D01*
X137070135Y-50240335D02*
X136651087Y-50240335D01*
X136651087Y-50240335D02*
X136546325Y-50292716D01*
X136546325Y-50292716D02*
X136493944Y-50345097D01*
X136493944Y-50345097D02*
X136441563Y-50449859D01*
X136441563Y-50449859D02*
X136441563Y-50607002D01*
X136441563Y-50607002D02*
X136493944Y-50711764D01*
X136493944Y-50711764D02*
X136546325Y-50764145D01*
X136546325Y-50764145D02*
X136651087Y-50816526D01*
X136651087Y-50816526D02*
X137070135Y-50816526D01*
X135760611Y-50240335D02*
X135655849Y-50240335D01*
X135655849Y-50240335D02*
X135551087Y-50292716D01*
X135551087Y-50292716D02*
X135498706Y-50345097D01*
X135498706Y-50345097D02*
X135446325Y-50449859D01*
X135446325Y-50449859D02*
X135393944Y-50659383D01*
X135393944Y-50659383D02*
X135393944Y-50921288D01*
X135393944Y-50921288D02*
X135446325Y-51130812D01*
X135446325Y-51130812D02*
X135498706Y-51235574D01*
X135498706Y-51235574D02*
X135551087Y-51287955D01*
X135551087Y-51287955D02*
X135655849Y-51340335D01*
X135655849Y-51340335D02*
X135760611Y-51340335D01*
X135760611Y-51340335D02*
X135865373Y-51287955D01*
X135865373Y-51287955D02*
X135917754Y-51235574D01*
X135917754Y-51235574D02*
X135970135Y-51130812D01*
X135970135Y-51130812D02*
X136022516Y-50921288D01*
X136022516Y-50921288D02*
X136022516Y-50659383D01*
X136022516Y-50659383D02*
X135970135Y-50449859D01*
X135970135Y-50449859D02*
X135917754Y-50345097D01*
X135917754Y-50345097D02*
X135865373Y-50292716D01*
X135865373Y-50292716D02*
X135760611Y-50240335D01*
X137070135Y-71656125D02*
X137070135Y-70556125D01*
X137070135Y-70556125D02*
X136651087Y-70556125D01*
X136651087Y-70556125D02*
X136546325Y-70608506D01*
X136546325Y-70608506D02*
X136493944Y-70660887D01*
X136493944Y-70660887D02*
X136441563Y-70765649D01*
X136441563Y-70765649D02*
X136441563Y-70922792D01*
X136441563Y-70922792D02*
X136493944Y-71027554D01*
X136493944Y-71027554D02*
X136546325Y-71079935D01*
X136546325Y-71079935D02*
X136651087Y-71132316D01*
X136651087Y-71132316D02*
X137070135Y-71132316D01*
X135812992Y-71027554D02*
X135917754Y-70975173D01*
X135917754Y-70975173D02*
X135970135Y-70922792D01*
X135970135Y-70922792D02*
X136022516Y-70818030D01*
X136022516Y-70818030D02*
X136022516Y-70765649D01*
X136022516Y-70765649D02*
X135970135Y-70660887D01*
X135970135Y-70660887D02*
X135917754Y-70608506D01*
X135917754Y-70608506D02*
X135812992Y-70556125D01*
X135812992Y-70556125D02*
X135603468Y-70556125D01*
X135603468Y-70556125D02*
X135498706Y-70608506D01*
X135498706Y-70608506D02*
X135446325Y-70660887D01*
X135446325Y-70660887D02*
X135393944Y-70765649D01*
X135393944Y-70765649D02*
X135393944Y-70818030D01*
X135393944Y-70818030D02*
X135446325Y-70922792D01*
X135446325Y-70922792D02*
X135498706Y-70975173D01*
X135498706Y-70975173D02*
X135603468Y-71027554D01*
X135603468Y-71027554D02*
X135812992Y-71027554D01*
X135812992Y-71027554D02*
X135917754Y-71079935D01*
X135917754Y-71079935D02*
X135970135Y-71132316D01*
X135970135Y-71132316D02*
X136022516Y-71237078D01*
X136022516Y-71237078D02*
X136022516Y-71446602D01*
X136022516Y-71446602D02*
X135970135Y-71551364D01*
X135970135Y-71551364D02*
X135917754Y-71603745D01*
X135917754Y-71603745D02*
X135812992Y-71656125D01*
X135812992Y-71656125D02*
X135603468Y-71656125D01*
X135603468Y-71656125D02*
X135498706Y-71603745D01*
X135498706Y-71603745D02*
X135446325Y-71551364D01*
X135446325Y-71551364D02*
X135393944Y-71446602D01*
X135393944Y-71446602D02*
X135393944Y-71237078D01*
X135393944Y-71237078D02*
X135446325Y-71132316D01*
X135446325Y-71132316D02*
X135498706Y-71079935D01*
X135498706Y-71079935D02*
X135603468Y-71027554D01*
X172233944Y-90870611D02*
X172338706Y-90818230D01*
X172338706Y-90818230D02*
X172495849Y-90818230D01*
X172495849Y-90818230D02*
X172652992Y-90870611D01*
X172652992Y-90870611D02*
X172757754Y-90975373D01*
X172757754Y-90975373D02*
X172810135Y-91080135D01*
X172810135Y-91080135D02*
X172862516Y-91289659D01*
X172862516Y-91289659D02*
X172862516Y-91446802D01*
X172862516Y-91446802D02*
X172810135Y-91656326D01*
X172810135Y-91656326D02*
X172757754Y-91761088D01*
X172757754Y-91761088D02*
X172652992Y-91865850D01*
X172652992Y-91865850D02*
X172495849Y-91918230D01*
X172495849Y-91918230D02*
X172391087Y-91918230D01*
X172391087Y-91918230D02*
X172233944Y-91865850D01*
X172233944Y-91865850D02*
X172181563Y-91813469D01*
X172181563Y-91813469D02*
X172181563Y-91446802D01*
X172181563Y-91446802D02*
X172391087Y-91446802D01*
X171710135Y-91918230D02*
X171710135Y-90818230D01*
X171710135Y-90818230D02*
X171081563Y-91918230D01*
X171081563Y-91918230D02*
X171081563Y-90818230D01*
X170557754Y-91918230D02*
X170557754Y-90818230D01*
X170557754Y-90818230D02*
X170295849Y-90818230D01*
X170295849Y-90818230D02*
X170138706Y-90870611D01*
X170138706Y-90870611D02*
X170033944Y-90975373D01*
X170033944Y-90975373D02*
X169981563Y-91080135D01*
X169981563Y-91080135D02*
X169929182Y-91289659D01*
X169929182Y-91289659D02*
X169929182Y-91446802D01*
X169929182Y-91446802D02*
X169981563Y-91656326D01*
X169981563Y-91656326D02*
X170033944Y-91761088D01*
X170033944Y-91761088D02*
X170138706Y-91865850D01*
X170138706Y-91865850D02*
X170295849Y-91918230D01*
X170295849Y-91918230D02*
X170557754Y-91918230D01*
D11*
G36*
X151310831Y-136241737D02*
G01*
X151204219Y-135550041D01*
X151064756Y-135550041D01*
X151188465Y-136241737D01*
X151310831Y-136241737D01*
G37*
G36*
X151296482Y-136577815D02*
G01*
X151321547Y-136574474D01*
X151342761Y-136564792D01*
X151361084Y-136548445D01*
X151374115Y-136527695D01*
X151380184Y-136504403D01*
X151379219Y-136477431D01*
X151367373Y-136444505D01*
X151343987Y-136417714D01*
X151313379Y-136399871D01*
X151281461Y-136394145D01*
X151255067Y-136397577D01*
X151233711Y-136407334D01*
X151216187Y-136423515D01*
X151199887Y-136455084D01*
X151198052Y-136491781D01*
X151208670Y-136524447D01*
X151231574Y-136552536D01*
X151262377Y-136571583D01*
X151296482Y-136577815D01*
G37*
G36*
X150908319Y-136241737D02*
G01*
X150801707Y-135550041D01*
X150662244Y-135550041D01*
X150785953Y-136241737D01*
X150908319Y-136241737D01*
G37*
G36*
X150893970Y-136577815D02*
G01*
X150919035Y-136574474D01*
X150940249Y-136564792D01*
X150958572Y-136548445D01*
X150971603Y-136527695D01*
X150977672Y-136504403D01*
X150976707Y-136477431D01*
X150964861Y-136444505D01*
X150941475Y-136417714D01*
X150910867Y-136399871D01*
X150878949Y-136394145D01*
X150852554Y-136397577D01*
X150831199Y-136407334D01*
X150813675Y-136423515D01*
X150797374Y-136455084D01*
X150795540Y-136491781D01*
X150806158Y-136524447D01*
X150829062Y-136552536D01*
X150859864Y-136571583D01*
X150893970Y-136577815D01*
G37*
G36*
X150505807Y-136241737D02*
G01*
X150399195Y-135550041D01*
X150259732Y-135550041D01*
X150383441Y-136241737D01*
X150505807Y-136241737D01*
G37*
G36*
X150491457Y-136577815D02*
G01*
X150516523Y-136574474D01*
X150537737Y-136564792D01*
X150556060Y-136548445D01*
X150569091Y-136527695D01*
X150575160Y-136504403D01*
X150574195Y-136477431D01*
X150562348Y-136444505D01*
X150538963Y-136417714D01*
X150508354Y-136399871D01*
X150476436Y-136394145D01*
X150450042Y-136397577D01*
X150428686Y-136407334D01*
X150411163Y-136423515D01*
X150394862Y-136455084D01*
X150393027Y-136491781D01*
X150403646Y-136524447D01*
X150426550Y-136552536D01*
X150457352Y-136571583D01*
X150491457Y-136577815D01*
G37*
D10*
X172810135Y-69068230D02*
X172810135Y-67968230D01*
X172810135Y-67968230D02*
X172391087Y-67968230D01*
X172391087Y-67968230D02*
X172286325Y-68020611D01*
X172286325Y-68020611D02*
X172233944Y-68072992D01*
X172233944Y-68072992D02*
X172181563Y-68177754D01*
X172181563Y-68177754D02*
X172181563Y-68334897D01*
X172181563Y-68334897D02*
X172233944Y-68439659D01*
X172233944Y-68439659D02*
X172286325Y-68492040D01*
X172286325Y-68492040D02*
X172391087Y-68544421D01*
X172391087Y-68544421D02*
X172810135Y-68544421D01*
X171762516Y-68072992D02*
X171710135Y-68020611D01*
X171710135Y-68020611D02*
X171605373Y-67968230D01*
X171605373Y-67968230D02*
X171343468Y-67968230D01*
X171343468Y-67968230D02*
X171238706Y-68020611D01*
X171238706Y-68020611D02*
X171186325Y-68072992D01*
X171186325Y-68072992D02*
X171133944Y-68177754D01*
X171133944Y-68177754D02*
X171133944Y-68282516D01*
X171133944Y-68282516D02*
X171186325Y-68439659D01*
X171186325Y-68439659D02*
X171814897Y-69068230D01*
X171814897Y-69068230D02*
X171133944Y-69068230D01*
X170714897Y-68072992D02*
X170662516Y-68020611D01*
X170662516Y-68020611D02*
X170557754Y-67968230D01*
X170557754Y-67968230D02*
X170295849Y-67968230D01*
X170295849Y-67968230D02*
X170191087Y-68020611D01*
X170191087Y-68020611D02*
X170138706Y-68072992D01*
X170138706Y-68072992D02*
X170086325Y-68177754D01*
X170086325Y-68177754D02*
X170086325Y-68282516D01*
X170086325Y-68282516D02*
X170138706Y-68439659D01*
X170138706Y-68439659D02*
X170767278Y-69068230D01*
X170767278Y-69068230D02*
X170086325Y-69068230D01*
X172810135Y-56593230D02*
X172810135Y-55493230D01*
X172810135Y-55493230D02*
X172391087Y-55493230D01*
X172391087Y-55493230D02*
X172286325Y-55545611D01*
X172286325Y-55545611D02*
X172233944Y-55597992D01*
X172233944Y-55597992D02*
X172181563Y-55702754D01*
X172181563Y-55702754D02*
X172181563Y-55859897D01*
X172181563Y-55859897D02*
X172233944Y-55964659D01*
X172233944Y-55964659D02*
X172286325Y-56017040D01*
X172286325Y-56017040D02*
X172391087Y-56069421D01*
X172391087Y-56069421D02*
X172810135Y-56069421D01*
X171762516Y-55597992D02*
X171710135Y-55545611D01*
X171710135Y-55545611D02*
X171605373Y-55493230D01*
X171605373Y-55493230D02*
X171343468Y-55493230D01*
X171343468Y-55493230D02*
X171238706Y-55545611D01*
X171238706Y-55545611D02*
X171186325Y-55597992D01*
X171186325Y-55597992D02*
X171133944Y-55702754D01*
X171133944Y-55702754D02*
X171133944Y-55807516D01*
X171133944Y-55807516D02*
X171186325Y-55964659D01*
X171186325Y-55964659D02*
X171814897Y-56593230D01*
X171814897Y-56593230D02*
X171133944Y-56593230D01*
X170767278Y-55493230D02*
X170033944Y-55493230D01*
X170033944Y-55493230D02*
X170505373Y-56593230D01*
X172810135Y-74118230D02*
X172810135Y-73018230D01*
X172810135Y-73018230D02*
X172391087Y-73018230D01*
X172391087Y-73018230D02*
X172286325Y-73070611D01*
X172286325Y-73070611D02*
X172233944Y-73122992D01*
X172233944Y-73122992D02*
X172181563Y-73227754D01*
X172181563Y-73227754D02*
X172181563Y-73384897D01*
X172181563Y-73384897D02*
X172233944Y-73489659D01*
X172233944Y-73489659D02*
X172286325Y-73542040D01*
X172286325Y-73542040D02*
X172391087Y-73594421D01*
X172391087Y-73594421D02*
X172810135Y-73594421D01*
X171762516Y-73122992D02*
X171710135Y-73070611D01*
X171710135Y-73070611D02*
X171605373Y-73018230D01*
X171605373Y-73018230D02*
X171343468Y-73018230D01*
X171343468Y-73018230D02*
X171238706Y-73070611D01*
X171238706Y-73070611D02*
X171186325Y-73122992D01*
X171186325Y-73122992D02*
X171133944Y-73227754D01*
X171133944Y-73227754D02*
X171133944Y-73332516D01*
X171133944Y-73332516D02*
X171186325Y-73489659D01*
X171186325Y-73489659D02*
X171814897Y-74118230D01*
X171814897Y-74118230D02*
X171133944Y-74118230D01*
X170452992Y-73018230D02*
X170348230Y-73018230D01*
X170348230Y-73018230D02*
X170243468Y-73070611D01*
X170243468Y-73070611D02*
X170191087Y-73122992D01*
X170191087Y-73122992D02*
X170138706Y-73227754D01*
X170138706Y-73227754D02*
X170086325Y-73437278D01*
X170086325Y-73437278D02*
X170086325Y-73699183D01*
X170086325Y-73699183D02*
X170138706Y-73908707D01*
X170138706Y-73908707D02*
X170191087Y-74013469D01*
X170191087Y-74013469D02*
X170243468Y-74065850D01*
X170243468Y-74065850D02*
X170348230Y-74118230D01*
X170348230Y-74118230D02*
X170452992Y-74118230D01*
X170452992Y-74118230D02*
X170557754Y-74065850D01*
X170557754Y-74065850D02*
X170610135Y-74013469D01*
X170610135Y-74013469D02*
X170662516Y-73908707D01*
X170662516Y-73908707D02*
X170714897Y-73699183D01*
X170714897Y-73699183D02*
X170714897Y-73437278D01*
X170714897Y-73437278D02*
X170662516Y-73227754D01*
X170662516Y-73227754D02*
X170610135Y-73122992D01*
X170610135Y-73122992D02*
X170557754Y-73070611D01*
X170557754Y-73070611D02*
X170452992Y-73018230D01*
X172810135Y-53818230D02*
X172810135Y-52718230D01*
X172810135Y-52718230D02*
X172391087Y-52718230D01*
X172391087Y-52718230D02*
X172286325Y-52770611D01*
X172286325Y-52770611D02*
X172233944Y-52822992D01*
X172233944Y-52822992D02*
X172181563Y-52927754D01*
X172181563Y-52927754D02*
X172181563Y-53084897D01*
X172181563Y-53084897D02*
X172233944Y-53189659D01*
X172233944Y-53189659D02*
X172286325Y-53242040D01*
X172286325Y-53242040D02*
X172391087Y-53294421D01*
X172391087Y-53294421D02*
X172810135Y-53294421D01*
X171762516Y-52822992D02*
X171710135Y-52770611D01*
X171710135Y-52770611D02*
X171605373Y-52718230D01*
X171605373Y-52718230D02*
X171343468Y-52718230D01*
X171343468Y-52718230D02*
X171238706Y-52770611D01*
X171238706Y-52770611D02*
X171186325Y-52822992D01*
X171186325Y-52822992D02*
X171133944Y-52927754D01*
X171133944Y-52927754D02*
X171133944Y-53032516D01*
X171133944Y-53032516D02*
X171186325Y-53189659D01*
X171186325Y-53189659D02*
X171814897Y-53818230D01*
X171814897Y-53818230D02*
X171133944Y-53818230D01*
X170505373Y-53189659D02*
X170610135Y-53137278D01*
X170610135Y-53137278D02*
X170662516Y-53084897D01*
X170662516Y-53084897D02*
X170714897Y-52980135D01*
X170714897Y-52980135D02*
X170714897Y-52927754D01*
X170714897Y-52927754D02*
X170662516Y-52822992D01*
X170662516Y-52822992D02*
X170610135Y-52770611D01*
X170610135Y-52770611D02*
X170505373Y-52718230D01*
X170505373Y-52718230D02*
X170295849Y-52718230D01*
X170295849Y-52718230D02*
X170191087Y-52770611D01*
X170191087Y-52770611D02*
X170138706Y-52822992D01*
X170138706Y-52822992D02*
X170086325Y-52927754D01*
X170086325Y-52927754D02*
X170086325Y-52980135D01*
X170086325Y-52980135D02*
X170138706Y-53084897D01*
X170138706Y-53084897D02*
X170191087Y-53137278D01*
X170191087Y-53137278D02*
X170295849Y-53189659D01*
X170295849Y-53189659D02*
X170505373Y-53189659D01*
X170505373Y-53189659D02*
X170610135Y-53242040D01*
X170610135Y-53242040D02*
X170662516Y-53294421D01*
X170662516Y-53294421D02*
X170714897Y-53399183D01*
X170714897Y-53399183D02*
X170714897Y-53608707D01*
X170714897Y-53608707D02*
X170662516Y-53713469D01*
X170662516Y-53713469D02*
X170610135Y-53765850D01*
X170610135Y-53765850D02*
X170505373Y-53818230D01*
X170505373Y-53818230D02*
X170295849Y-53818230D01*
X170295849Y-53818230D02*
X170191087Y-53765850D01*
X170191087Y-53765850D02*
X170138706Y-53713469D01*
X170138706Y-53713469D02*
X170086325Y-53608707D01*
X170086325Y-53608707D02*
X170086325Y-53399183D01*
X170086325Y-53399183D02*
X170138706Y-53294421D01*
X170138706Y-53294421D02*
X170191087Y-53242040D01*
X170191087Y-53242040D02*
X170295849Y-53189659D01*
X137646326Y-45161388D02*
X136965373Y-45161388D01*
X136965373Y-45161388D02*
X137332040Y-45580436D01*
X137332040Y-45580436D02*
X137174897Y-45580436D01*
X137174897Y-45580436D02*
X137070135Y-45632817D01*
X137070135Y-45632817D02*
X137017754Y-45685198D01*
X137017754Y-45685198D02*
X136965373Y-45789960D01*
X136965373Y-45789960D02*
X136965373Y-46051865D01*
X136965373Y-46051865D02*
X137017754Y-46156627D01*
X137017754Y-46156627D02*
X137070135Y-46209008D01*
X137070135Y-46209008D02*
X137174897Y-46261388D01*
X137174897Y-46261388D02*
X137489183Y-46261388D01*
X137489183Y-46261388D02*
X137593945Y-46209008D01*
X137593945Y-46209008D02*
X137646326Y-46156627D01*
X136493945Y-46156627D02*
X136441564Y-46209008D01*
X136441564Y-46209008D02*
X136493945Y-46261388D01*
X136493945Y-46261388D02*
X136546326Y-46209008D01*
X136546326Y-46209008D02*
X136493945Y-46156627D01*
X136493945Y-46156627D02*
X136493945Y-46261388D01*
X136074897Y-45161388D02*
X135393944Y-45161388D01*
X135393944Y-45161388D02*
X135760611Y-45580436D01*
X135760611Y-45580436D02*
X135603468Y-45580436D01*
X135603468Y-45580436D02*
X135498706Y-45632817D01*
X135498706Y-45632817D02*
X135446325Y-45685198D01*
X135446325Y-45685198D02*
X135393944Y-45789960D01*
X135393944Y-45789960D02*
X135393944Y-46051865D01*
X135393944Y-46051865D02*
X135446325Y-46156627D01*
X135446325Y-46156627D02*
X135498706Y-46209008D01*
X135498706Y-46209008D02*
X135603468Y-46261388D01*
X135603468Y-46261388D02*
X135917754Y-46261388D01*
X135917754Y-46261388D02*
X136022516Y-46209008D01*
X136022516Y-46209008D02*
X136074897Y-46156627D01*
X137070135Y-61498230D02*
X137070135Y-60398230D01*
X137070135Y-60398230D02*
X136651087Y-60398230D01*
X136651087Y-60398230D02*
X136546325Y-60450611D01*
X136546325Y-60450611D02*
X136493944Y-60502992D01*
X136493944Y-60502992D02*
X136441563Y-60607754D01*
X136441563Y-60607754D02*
X136441563Y-60764897D01*
X136441563Y-60764897D02*
X136493944Y-60869659D01*
X136493944Y-60869659D02*
X136546325Y-60922040D01*
X136546325Y-60922040D02*
X136651087Y-60974421D01*
X136651087Y-60974421D02*
X137070135Y-60974421D01*
X135498706Y-60764897D02*
X135498706Y-61498230D01*
X135760611Y-60345850D02*
X136022516Y-61131564D01*
X136022516Y-61131564D02*
X135341563Y-61131564D01*
X172810135Y-84343230D02*
X172810135Y-83243230D01*
X172810135Y-83243230D02*
X172391087Y-83243230D01*
X172391087Y-83243230D02*
X172286325Y-83295611D01*
X172286325Y-83295611D02*
X172233944Y-83347992D01*
X172233944Y-83347992D02*
X172181563Y-83452754D01*
X172181563Y-83452754D02*
X172181563Y-83609897D01*
X172181563Y-83609897D02*
X172233944Y-83714659D01*
X172233944Y-83714659D02*
X172286325Y-83767040D01*
X172286325Y-83767040D02*
X172391087Y-83819421D01*
X172391087Y-83819421D02*
X172810135Y-83819421D01*
X171133944Y-84343230D02*
X171762516Y-84343230D01*
X171448230Y-84343230D02*
X171448230Y-83243230D01*
X171448230Y-83243230D02*
X171552992Y-83400373D01*
X171552992Y-83400373D02*
X171657754Y-83505135D01*
X171657754Y-83505135D02*
X171762516Y-83557516D01*
X170191087Y-83243230D02*
X170400611Y-83243230D01*
X170400611Y-83243230D02*
X170505373Y-83295611D01*
X170505373Y-83295611D02*
X170557754Y-83347992D01*
X170557754Y-83347992D02*
X170662516Y-83505135D01*
X170662516Y-83505135D02*
X170714897Y-83714659D01*
X170714897Y-83714659D02*
X170714897Y-84133707D01*
X170714897Y-84133707D02*
X170662516Y-84238469D01*
X170662516Y-84238469D02*
X170610135Y-84290850D01*
X170610135Y-84290850D02*
X170505373Y-84343230D01*
X170505373Y-84343230D02*
X170295849Y-84343230D01*
X170295849Y-84343230D02*
X170191087Y-84290850D01*
X170191087Y-84290850D02*
X170138706Y-84238469D01*
X170138706Y-84238469D02*
X170086325Y-84133707D01*
X170086325Y-84133707D02*
X170086325Y-83871802D01*
X170086325Y-83871802D02*
X170138706Y-83767040D01*
X170138706Y-83767040D02*
X170191087Y-83714659D01*
X170191087Y-83714659D02*
X170295849Y-83662278D01*
X170295849Y-83662278D02*
X170505373Y-83662278D01*
X170505373Y-83662278D02*
X170610135Y-83714659D01*
X170610135Y-83714659D02*
X170662516Y-83767040D01*
X170662516Y-83767040D02*
X170714897Y-83871802D01*
X172810135Y-61368230D02*
X172810135Y-60268230D01*
X172810135Y-60268230D02*
X172391087Y-60268230D01*
X172391087Y-60268230D02*
X172286325Y-60320611D01*
X172286325Y-60320611D02*
X172233944Y-60372992D01*
X172233944Y-60372992D02*
X172181563Y-60477754D01*
X172181563Y-60477754D02*
X172181563Y-60634897D01*
X172181563Y-60634897D02*
X172233944Y-60739659D01*
X172233944Y-60739659D02*
X172286325Y-60792040D01*
X172286325Y-60792040D02*
X172391087Y-60844421D01*
X172391087Y-60844421D02*
X172810135Y-60844421D01*
X171762516Y-60372992D02*
X171710135Y-60320611D01*
X171710135Y-60320611D02*
X171605373Y-60268230D01*
X171605373Y-60268230D02*
X171343468Y-60268230D01*
X171343468Y-60268230D02*
X171238706Y-60320611D01*
X171238706Y-60320611D02*
X171186325Y-60372992D01*
X171186325Y-60372992D02*
X171133944Y-60477754D01*
X171133944Y-60477754D02*
X171133944Y-60582516D01*
X171133944Y-60582516D02*
X171186325Y-60739659D01*
X171186325Y-60739659D02*
X171814897Y-61368230D01*
X171814897Y-61368230D02*
X171133944Y-61368230D01*
X170138706Y-60268230D02*
X170662516Y-60268230D01*
X170662516Y-60268230D02*
X170714897Y-60792040D01*
X170714897Y-60792040D02*
X170662516Y-60739659D01*
X170662516Y-60739659D02*
X170557754Y-60687278D01*
X170557754Y-60687278D02*
X170295849Y-60687278D01*
X170295849Y-60687278D02*
X170191087Y-60739659D01*
X170191087Y-60739659D02*
X170138706Y-60792040D01*
X170138706Y-60792040D02*
X170086325Y-60896802D01*
X170086325Y-60896802D02*
X170086325Y-61158707D01*
X170086325Y-61158707D02*
X170138706Y-61263469D01*
X170138706Y-61263469D02*
X170191087Y-61315850D01*
X170191087Y-61315850D02*
X170295849Y-61368230D01*
X170295849Y-61368230D02*
X170557754Y-61368230D01*
X170557754Y-61368230D02*
X170662516Y-61315850D01*
X170662516Y-61315850D02*
X170714897Y-61263469D01*
X172810135Y-51243230D02*
X172810135Y-50143230D01*
X172810135Y-50143230D02*
X172391087Y-50143230D01*
X172391087Y-50143230D02*
X172286325Y-50195611D01*
X172286325Y-50195611D02*
X172233944Y-50247992D01*
X172233944Y-50247992D02*
X172181563Y-50352754D01*
X172181563Y-50352754D02*
X172181563Y-50509897D01*
X172181563Y-50509897D02*
X172233944Y-50614659D01*
X172233944Y-50614659D02*
X172286325Y-50667040D01*
X172286325Y-50667040D02*
X172391087Y-50719421D01*
X172391087Y-50719421D02*
X172810135Y-50719421D01*
X171762516Y-50247992D02*
X171710135Y-50195611D01*
X171710135Y-50195611D02*
X171605373Y-50143230D01*
X171605373Y-50143230D02*
X171343468Y-50143230D01*
X171343468Y-50143230D02*
X171238706Y-50195611D01*
X171238706Y-50195611D02*
X171186325Y-50247992D01*
X171186325Y-50247992D02*
X171133944Y-50352754D01*
X171133944Y-50352754D02*
X171133944Y-50457516D01*
X171133944Y-50457516D02*
X171186325Y-50614659D01*
X171186325Y-50614659D02*
X171814897Y-51243230D01*
X171814897Y-51243230D02*
X171133944Y-51243230D01*
X170610135Y-51243230D02*
X170400611Y-51243230D01*
X170400611Y-51243230D02*
X170295849Y-51190850D01*
X170295849Y-51190850D02*
X170243468Y-51138469D01*
X170243468Y-51138469D02*
X170138706Y-50981326D01*
X170138706Y-50981326D02*
X170086325Y-50771802D01*
X170086325Y-50771802D02*
X170086325Y-50352754D01*
X170086325Y-50352754D02*
X170138706Y-50247992D01*
X170138706Y-50247992D02*
X170191087Y-50195611D01*
X170191087Y-50195611D02*
X170295849Y-50143230D01*
X170295849Y-50143230D02*
X170505373Y-50143230D01*
X170505373Y-50143230D02*
X170610135Y-50195611D01*
X170610135Y-50195611D02*
X170662516Y-50247992D01*
X170662516Y-50247992D02*
X170714897Y-50352754D01*
X170714897Y-50352754D02*
X170714897Y-50614659D01*
X170714897Y-50614659D02*
X170662516Y-50719421D01*
X170662516Y-50719421D02*
X170610135Y-50771802D01*
X170610135Y-50771802D02*
X170505373Y-50824183D01*
X170505373Y-50824183D02*
X170295849Y-50824183D01*
X170295849Y-50824183D02*
X170191087Y-50771802D01*
X170191087Y-50771802D02*
X170138706Y-50719421D01*
X170138706Y-50719421D02*
X170086325Y-50614659D01*
X172233944Y-88270611D02*
X172338706Y-88218230D01*
X172338706Y-88218230D02*
X172495849Y-88218230D01*
X172495849Y-88218230D02*
X172652992Y-88270611D01*
X172652992Y-88270611D02*
X172757754Y-88375373D01*
X172757754Y-88375373D02*
X172810135Y-88480135D01*
X172810135Y-88480135D02*
X172862516Y-88689659D01*
X172862516Y-88689659D02*
X172862516Y-88846802D01*
X172862516Y-88846802D02*
X172810135Y-89056326D01*
X172810135Y-89056326D02*
X172757754Y-89161088D01*
X172757754Y-89161088D02*
X172652992Y-89265850D01*
X172652992Y-89265850D02*
X172495849Y-89318230D01*
X172495849Y-89318230D02*
X172391087Y-89318230D01*
X172391087Y-89318230D02*
X172233944Y-89265850D01*
X172233944Y-89265850D02*
X172181563Y-89213469D01*
X172181563Y-89213469D02*
X172181563Y-88846802D01*
X172181563Y-88846802D02*
X172391087Y-88846802D01*
X171710135Y-89318230D02*
X171710135Y-88218230D01*
X171710135Y-88218230D02*
X171081563Y-89318230D01*
X171081563Y-89318230D02*
X171081563Y-88218230D01*
X170557754Y-89318230D02*
X170557754Y-88218230D01*
X170557754Y-88218230D02*
X170295849Y-88218230D01*
X170295849Y-88218230D02*
X170138706Y-88270611D01*
X170138706Y-88270611D02*
X170033944Y-88375373D01*
X170033944Y-88375373D02*
X169981563Y-88480135D01*
X169981563Y-88480135D02*
X169929182Y-88689659D01*
X169929182Y-88689659D02*
X169929182Y-88846802D01*
X169929182Y-88846802D02*
X169981563Y-89056326D01*
X169981563Y-89056326D02*
X170033944Y-89161088D01*
X170033944Y-89161088D02*
X170138706Y-89265850D01*
X170138706Y-89265850D02*
X170295849Y-89318230D01*
X170295849Y-89318230D02*
X170557754Y-89318230D01*
D11*
X171967319Y-42136666D02*
X172681604Y-42136666D01*
X172681604Y-42136666D02*
X172824461Y-42089047D01*
X172824461Y-42089047D02*
X172919700Y-41993809D01*
X172919700Y-41993809D02*
X172967319Y-41850952D01*
X172967319Y-41850952D02*
X172967319Y-41755714D01*
X172062557Y-42565238D02*
X172014938Y-42612857D01*
X172014938Y-42612857D02*
X171967319Y-42708095D01*
X171967319Y-42708095D02*
X171967319Y-42946190D01*
X171967319Y-42946190D02*
X172014938Y-43041428D01*
X172014938Y-43041428D02*
X172062557Y-43089047D01*
X172062557Y-43089047D02*
X172157795Y-43136666D01*
X172157795Y-43136666D02*
X172253033Y-43136666D01*
X172253033Y-43136666D02*
X172395890Y-43089047D01*
X172395890Y-43089047D02*
X172967319Y-42517619D01*
X172967319Y-42517619D02*
X172967319Y-43136666D01*
X175065833Y-42664819D02*
X175065833Y-43379104D01*
X175065833Y-43379104D02*
X175113452Y-43521961D01*
X175113452Y-43521961D02*
X175208690Y-43617200D01*
X175208690Y-43617200D02*
X175351547Y-43664819D01*
X175351547Y-43664819D02*
X175446785Y-43664819D01*
X174161071Y-42998152D02*
X174161071Y-43664819D01*
X174399166Y-42617200D02*
X174637261Y-43331485D01*
X174637261Y-43331485D02*
X174018214Y-43331485D01*
X133925833Y-42684615D02*
X133925833Y-43398900D01*
X133925833Y-43398900D02*
X133973452Y-43541757D01*
X133973452Y-43541757D02*
X134068690Y-43636996D01*
X134068690Y-43636996D02*
X134211547Y-43684615D01*
X134211547Y-43684615D02*
X134306785Y-43684615D01*
X133544880Y-42684615D02*
X132925833Y-42684615D01*
X132925833Y-42684615D02*
X133259166Y-43065567D01*
X133259166Y-43065567D02*
X133116309Y-43065567D01*
X133116309Y-43065567D02*
X133021071Y-43113186D01*
X133021071Y-43113186D02*
X132973452Y-43160805D01*
X132973452Y-43160805D02*
X132925833Y-43256043D01*
X132925833Y-43256043D02*
X132925833Y-43494138D01*
X132925833Y-43494138D02*
X132973452Y-43589376D01*
X132973452Y-43589376D02*
X133021071Y-43636996D01*
X133021071Y-43636996D02*
X133116309Y-43684615D01*
X133116309Y-43684615D02*
X133402023Y-43684615D01*
X133402023Y-43684615D02*
X133497261Y-43636996D01*
X133497261Y-43636996D02*
X133544880Y-43589376D01*
D12*
X161132500Y-43850000D02*
X161132500Y-41090000D01*
X168862500Y-41090000D02*
X161132500Y-41090000D01*
X168862500Y-43850000D02*
X161132500Y-43850000D01*
X168862500Y-43850000D02*
X168862500Y-41090000D01*
X170132500Y-43850000D02*
X171512500Y-43850000D01*
X171512500Y-43850000D02*
X171512500Y-42470000D01*
X173352500Y-46860000D02*
X173352500Y-95230000D01*
X176112500Y-44210000D02*
X174732500Y-44210000D01*
X176112500Y-45590000D02*
X176112500Y-44210000D01*
X176112500Y-46860000D02*
X173352500Y-46860000D01*
X176112500Y-46860000D02*
X176112500Y-95230000D01*
X176112500Y-95230000D02*
X173352500Y-95230000D01*
X132212500Y-46879796D02*
X132212500Y-95249796D01*
X134972500Y-44229796D02*
X133592500Y-44229796D01*
X134972500Y-45609796D02*
X134972500Y-44229796D01*
X134972500Y-46879796D02*
X132212500Y-46879796D01*
X134972500Y-46879796D02*
X134972500Y-95249796D01*
X134972500Y-95249796D02*
X132212500Y-95249796D01*
M02*
